<?xml version="1.0" encoding="UTF-8" standalone="no"?>
<!DOCTYPE svg PUBLIC "-//W3C//DTD SVG 1.1//EN"
 "http://www.w3.org/Graphics/SVG/1.1/DTD/svg11.dtd">
<!-- Generated by graphviz version 2.36.0 (20140111.2315)
 -->
<!-- Title: G Pages: 1 -->
<svg width="567pt" height="2065pt"
 viewBox="0.00 0.00 567.20 2065.29" xmlns="http://www.w3.org/2000/svg" xmlns:xlink="http://www.w3.org/1999/xlink">
<g id="graph0" class="graph" transform="scale(1 1) rotate(0) translate(21.6 2043.69)">
<title>G</title>
<polygon fill="#111111" stroke="none" points="-21.6,21.6 -21.6,-2043.69 545.6,-2043.69 545.6,21.6 -21.6,21.6"/>
<!-- _reduceLazy.ts -->
<g id="node1" class="node"><title>_reduceLazy.ts</title>
<path fill="none" stroke="#cfffac" d="M506.833,-1512.5C506.833,-1512.5 411.167,-1512.5 411.167,-1512.5 407.333,-1512.5 403.5,-1508.67 403.5,-1504.83 403.5,-1504.83 403.5,-1497.17 403.5,-1497.17 403.5,-1493.33 407.333,-1489.5 411.167,-1489.5 411.167,-1489.5 506.833,-1489.5 506.833,-1489.5 510.667,-1489.5 514.5,-1493.33 514.5,-1497.17 514.5,-1497.17 514.5,-1504.83 514.5,-1504.83 514.5,-1508.67 510.667,-1512.5 506.833,-1512.5"/>
<text text-anchor="middle" x="459" y="-1497.3" font-family="Arial" font-size="14.00" fill="#cfffac">_reduceLazy.ts</text>
</g>
<!-- _toLazyIndexed.ts -->
<g id="node2" class="node"><title>_toLazyIndexed.ts</title>
<path fill="none" stroke="#cfffac" d="M516.333,-1881.5C516.333,-1881.5 401.667,-1881.5 401.667,-1881.5 397.833,-1881.5 394,-1877.67 394,-1873.83 394,-1873.83 394,-1866.17 394,-1866.17 394,-1862.33 397.833,-1858.5 401.667,-1858.5 401.667,-1858.5 516.333,-1858.5 516.333,-1858.5 520.167,-1858.5 524,-1862.33 524,-1866.17 524,-1866.17 524,-1873.83 524,-1873.83 524,-1877.67 520.167,-1881.5 516.333,-1881.5"/>
<text text-anchor="middle" x="459" y="-1866.3" font-family="Arial" font-size="14.00" fill="#cfffac">_toLazyIndexed.ts</text>
</g>
<!-- _toSingle.ts -->
<g id="node3" class="node"><title>_toSingle.ts</title>
<path fill="none" stroke="#cfffac" d="M496.333,-1963.5C496.333,-1963.5 421.667,-1963.5 421.667,-1963.5 417.833,-1963.5 414,-1959.67 414,-1955.83 414,-1955.83 414,-1948.17 414,-1948.17 414,-1944.33 417.833,-1940.5 421.667,-1940.5 421.667,-1940.5 496.333,-1940.5 496.333,-1940.5 500.167,-1940.5 504,-1944.33 504,-1948.17 504,-1948.17 504,-1955.83 504,-1955.83 504,-1959.67 500.167,-1963.5 496.333,-1963.5"/>
<text text-anchor="middle" x="459" y="-1948.3" font-family="Arial" font-size="14.00" fill="#cfffac">_toSingle.ts</text>
</g>
<!-- _types.ts -->
<g id="node4" class="node"><title>_types.ts</title>
<path fill="none" stroke="#cfffac" d="M487.833,-1820.5C487.833,-1820.5 430.167,-1820.5 430.167,-1820.5 426.333,-1820.5 422.5,-1816.67 422.5,-1812.83 422.5,-1812.83 422.5,-1805.17 422.5,-1805.17 422.5,-1801.33 426.333,-1797.5 430.167,-1797.5 430.167,-1797.5 487.833,-1797.5 487.833,-1797.5 491.667,-1797.5 495.5,-1801.33 495.5,-1805.17 495.5,-1805.17 495.5,-1812.83 495.5,-1812.83 495.5,-1816.67 491.667,-1820.5 487.833,-1820.5"/>
<text text-anchor="middle" x="459" y="-1805.3" font-family="Arial" font-size="14.00" fill="#cfffac">_types.ts</text>
</g>
<!-- addProp.ts -->
<g id="node5" class="node"><title>addProp.ts</title>
<path fill="none" stroke="#c6c5fe" d="M340.333,-432.5C340.333,-432.5 271.667,-432.5 271.667,-432.5 267.833,-432.5 264,-428.667 264,-424.833 264,-424.833 264,-417.167 264,-417.167 264,-413.333 267.833,-409.5 271.667,-409.5 271.667,-409.5 340.333,-409.5 340.333,-409.5 344.167,-409.5 348,-413.333 348,-417.167 348,-417.167 348,-424.833 348,-424.833 348,-428.667 344.167,-432.5 340.333,-432.5"/>
<text text-anchor="middle" x="306" y="-417.3" font-family="Arial" font-size="14.00" fill="#c6c5fe">addProp.ts</text>
</g>
<!-- purry.ts -->
<g id="node6" class="node"><title>purry.ts</title>
<path fill="none" stroke="#cfffac" d="M482.833,-1107.5C482.833,-1107.5 435.167,-1107.5 435.167,-1107.5 431.333,-1107.5 427.5,-1103.67 427.5,-1099.83 427.5,-1099.83 427.5,-1092.17 427.5,-1092.17 427.5,-1088.33 431.333,-1084.5 435.167,-1084.5 435.167,-1084.5 482.833,-1084.5 482.833,-1084.5 486.667,-1084.5 490.5,-1088.33 490.5,-1092.17 490.5,-1092.17 490.5,-1099.83 490.5,-1099.83 490.5,-1103.67 486.667,-1107.5 482.833,-1107.5"/>
<text text-anchor="middle" x="459" y="-1092.3" font-family="Arial" font-size="14.00" fill="#cfffac">purry.ts</text>
</g>
<!-- addProp.ts&#45;&gt;purry.ts -->
<g id="edge1" class="edge"><title>addProp.ts&#45;&gt;purry.ts</title>
<path fill="none" stroke="#757575" d="M333.274,-432.355C342.494,-437.627 352.031,-444.799 358,-454 427.017,-560.383 451.938,-975.104 456.983,-1074.5"/>
<polygon fill="#757575" stroke="#757575" points="453.491,-1074.74 457.479,-1084.55 460.482,-1074.39 453.491,-1074.74"/>
</g>
<!-- anyPass.ts -->
<g id="node7" class="node"><title>anyPass.ts</title>
<path fill="none" stroke="#c6c5fe" d="M340.833,-308.5C340.833,-308.5 271.167,-308.5 271.167,-308.5 267.333,-308.5 263.5,-304.667 263.5,-300.833 263.5,-300.833 263.5,-293.167 263.5,-293.167 263.5,-289.333 267.333,-285.5 271.167,-285.5 271.167,-285.5 340.833,-285.5 340.833,-285.5 344.667,-285.5 348.5,-289.333 348.5,-293.167 348.5,-293.167 348.5,-300.833 348.5,-300.833 348.5,-304.667 344.667,-308.5 340.833,-308.5"/>
<text text-anchor="middle" x="306" y="-293.3" font-family="Arial" font-size="14.00" fill="#c6c5fe">anyPass.ts</text>
</g>
<!-- anyPass.ts&#45;&gt;purry.ts -->
<g id="edge2" class="edge"><title>anyPass.ts&#45;&gt;purry.ts</title>
<path fill="none" stroke="#757575" d="M340.73,-308.33C347.386,-312.027 353.648,-316.826 358,-323 446.847,-449.046 456.756,-963.385 457.861,-1074.69"/>
<polygon fill="#757575" stroke="#757575" points="454.362,-1074.73 457.947,-1084.7 461.361,-1074.67 454.362,-1074.73"/>
</g>
<!-- chunk.ts -->
<g id="node8" class="node"><title>chunk.ts</title>
<path fill="none" stroke="#c6c5fe" d="M332.833,-226.5C332.833,-226.5 279.167,-226.5 279.167,-226.5 275.333,-226.5 271.5,-222.667 271.5,-218.833 271.5,-218.833 271.5,-211.167 271.5,-211.167 271.5,-207.333 275.333,-203.5 279.167,-203.5 279.167,-203.5 332.833,-203.5 332.833,-203.5 336.667,-203.5 340.5,-207.333 340.5,-211.167 340.5,-211.167 340.5,-218.833 340.5,-218.833 340.5,-222.667 336.667,-226.5 332.833,-226.5"/>
<text text-anchor="middle" x="306" y="-211.3" font-family="Arial" font-size="14.00" fill="#c6c5fe">chunk.ts</text>
</g>
<!-- chunk.ts&#45;&gt;purry.ts -->
<g id="edge3" class="edge"><title>chunk.ts&#45;&gt;purry.ts</title>
<path fill="none" stroke="#757575" d="M340.642,-222.266C347.302,-225.185 353.589,-229.274 358,-235 463.306,-371.713 460.188,-954.54 458.398,-1074.4"/>
<polygon fill="#757575" stroke="#757575" points="454.897,-1074.47 458.233,-1084.52 461.896,-1074.58 454.897,-1074.47"/>
</g>
<!-- clamp.ts -->
<g id="node9" class="node"><title>clamp.ts</title>
<path fill="none" stroke="#c6c5fe" d="M332.833,-267.5C332.833,-267.5 279.167,-267.5 279.167,-267.5 275.333,-267.5 271.5,-263.667 271.5,-259.833 271.5,-259.833 271.5,-252.167 271.5,-252.167 271.5,-248.333 275.333,-244.5 279.167,-244.5 279.167,-244.5 332.833,-244.5 332.833,-244.5 336.667,-244.5 340.5,-248.333 340.5,-252.167 340.5,-252.167 340.5,-259.833 340.5,-259.833 340.5,-263.667 336.667,-267.5 332.833,-267.5"/>
<text text-anchor="middle" x="306" y="-252.3" font-family="Arial" font-size="14.00" fill="#c6c5fe">clamp.ts</text>
</g>
<!-- clamp.ts&#45;&gt;purry.ts -->
<g id="edge4" class="edge"><title>clamp.ts&#45;&gt;purry.ts</title>
<path fill="none" stroke="#757575" d="M340.618,-263.284C347.279,-266.203 353.573,-270.286 358,-276 458.419,-405.599 459.232,-957.776 458.259,-1074.34"/>
<polygon fill="#757575" stroke="#757575" points="454.757,-1074.47 458.159,-1084.5 461.757,-1074.54 454.757,-1074.47"/>
</g>
<!-- clone.ts -->
<g id="node10" class="node"><title>clone.ts</title>
<path fill="none" stroke="#c6c5fe" d="M184.833,-1891.5C184.833,-1891.5 135.167,-1891.5 135.167,-1891.5 131.333,-1891.5 127.5,-1887.67 127.5,-1883.83 127.5,-1883.83 127.5,-1876.17 127.5,-1876.17 127.5,-1872.33 131.333,-1868.5 135.167,-1868.5 135.167,-1868.5 184.833,-1868.5 184.833,-1868.5 188.667,-1868.5 192.5,-1872.33 192.5,-1876.17 192.5,-1876.17 192.5,-1883.83 192.5,-1883.83 192.5,-1887.67 188.667,-1891.5 184.833,-1891.5"/>
<text text-anchor="middle" x="160" y="-1876.3" font-family="Arial" font-size="14.00" fill="#c6c5fe">clone.ts</text>
</g>
<!-- type.ts -->
<g id="node11" class="node"><title>type.ts</title>
<path fill="none" stroke="#cfffac" d="M327.333,-1779.5C327.333,-1779.5 284.667,-1779.5 284.667,-1779.5 280.833,-1779.5 277,-1775.67 277,-1771.83 277,-1771.83 277,-1764.17 277,-1764.17 277,-1760.33 280.833,-1756.5 284.667,-1756.5 284.667,-1756.5 327.333,-1756.5 327.333,-1756.5 331.167,-1756.5 335,-1760.33 335,-1764.17 335,-1764.17 335,-1771.83 335,-1771.83 335,-1775.67 331.167,-1779.5 327.333,-1779.5"/>
<text text-anchor="middle" x="306" y="-1764.3" font-family="Arial" font-size="14.00" fill="#cfffac">type.ts</text>
</g>
<!-- clone.ts&#45;&gt;type.ts -->
<g id="edge5" class="edge"><title>clone.ts&#45;&gt;type.ts</title>
<path fill="none" stroke="#757575" d="M192.781,-1869.8C201.664,-1865.86 210.835,-1860.67 218,-1854 242.455,-1831.23 228.937,-1810.1 254,-1788 257.956,-1784.51 262.591,-1781.6 267.426,-1779.17"/>
<polygon fill="#757575" stroke="#757575" points="269.063,-1782.27 276.842,-1775.08 266.275,-1775.85 269.063,-1782.27"/>
</g>
<!-- compact.ts -->
<g id="node12" class="node"><title>compact.ts</title>
<path fill="none" stroke="#cfffac" d="M194.333,-1811.5C194.333,-1811.5 125.667,-1811.5 125.667,-1811.5 121.833,-1811.5 118,-1807.67 118,-1803.83 118,-1803.83 118,-1796.17 118,-1796.17 118,-1792.33 121.833,-1788.5 125.667,-1788.5 125.667,-1788.5 194.333,-1788.5 194.333,-1788.5 198.167,-1788.5 202,-1792.33 202,-1796.17 202,-1796.17 202,-1803.83 202,-1803.83 202,-1807.67 198.167,-1811.5 194.333,-1811.5"/>
<text text-anchor="middle" x="160" y="-1796.3" font-family="Arial" font-size="14.00" fill="#cfffac">compact.ts</text>
</g>
<!-- concat.ts -->
<g id="node13" class="node"><title>concat.ts</title>
<path fill="none" stroke="#c6c5fe" d="M334.833,-185.5C334.833,-185.5 277.167,-185.5 277.167,-185.5 273.333,-185.5 269.5,-181.667 269.5,-177.833 269.5,-177.833 269.5,-170.167 269.5,-170.167 269.5,-166.333 273.333,-162.5 277.167,-162.5 277.167,-162.5 334.833,-162.5 334.833,-162.5 338.667,-162.5 342.5,-166.333 342.5,-170.167 342.5,-170.167 342.5,-177.833 342.5,-177.833 342.5,-181.667 338.667,-185.5 334.833,-185.5"/>
<text text-anchor="middle" x="306" y="-170.3" font-family="Arial" font-size="14.00" fill="#c6c5fe">concat.ts</text>
</g>
<!-- concat.ts&#45;&gt;purry.ts -->
<g id="edge6" class="edge"><title>concat.ts&#45;&gt;purry.ts</title>
<path fill="none" stroke="#757575" d="M342.753,-182.21C348.625,-185.049 354.067,-188.866 358,-194 413.401,-266.313 450.316,-944.119 456.932,-1074.4"/>
<polygon fill="#757575" stroke="#757575" points="453.45,-1074.85 457.448,-1084.67 460.441,-1074.5 453.45,-1074.85"/>
</g>
<!-- createPipe.ts -->
<g id="node14" class="node"><title>createPipe.ts</title>
<path fill="none" stroke="#c6c5fe" d="M201.333,-1655.5C201.333,-1655.5 118.667,-1655.5 118.667,-1655.5 114.833,-1655.5 111,-1651.67 111,-1647.83 111,-1647.83 111,-1640.17 111,-1640.17 111,-1636.33 114.833,-1632.5 118.667,-1632.5 118.667,-1632.5 201.333,-1632.5 201.333,-1632.5 205.167,-1632.5 209,-1636.33 209,-1640.17 209,-1640.17 209,-1647.83 209,-1647.83 209,-1651.67 205.167,-1655.5 201.333,-1655.5"/>
<text text-anchor="middle" x="160" y="-1640.3" font-family="Arial" font-size="14.00" fill="#c6c5fe">createPipe.ts</text>
</g>
<!-- pipe.ts -->
<g id="node15" class="node"><title>pipe.ts</title>
<path fill="none" stroke="#c6c5fe" d="M327.333,-1656.5C327.333,-1656.5 284.667,-1656.5 284.667,-1656.5 280.833,-1656.5 277,-1652.67 277,-1648.83 277,-1648.83 277,-1641.17 277,-1641.17 277,-1637.33 280.833,-1633.5 284.667,-1633.5 284.667,-1633.5 327.333,-1633.5 327.333,-1633.5 331.167,-1633.5 335,-1637.33 335,-1641.17 335,-1641.17 335,-1648.83 335,-1648.83 335,-1652.67 331.167,-1656.5 327.333,-1656.5"/>
<text text-anchor="middle" x="306" y="-1641.3" font-family="Arial" font-size="14.00" fill="#c6c5fe">pipe.ts</text>
</g>
<!-- createPipe.ts&#45;&gt;pipe.ts -->
<g id="edge7" class="edge"><title>createPipe.ts&#45;&gt;pipe.ts</title>
<path fill="none" stroke="#757575" d="M209.351,-1644.34C227.89,-1644.46 248.783,-1644.61 266.302,-1644.73"/>
<polygon fill="#757575" stroke="#757575" points="266.699,-1648.23 276.723,-1644.8 266.748,-1641.23 266.699,-1648.23"/>
</g>
<!-- pipe.ts&#45;&gt;_reduceLazy.ts -->
<g id="edge106" class="edge"><title>pipe.ts&#45;&gt;_reduceLazy.ts</title>
<path fill="none" stroke="#757575" d="M335.063,-1636.34C342.914,-1633.17 351.161,-1629.09 358,-1624 396.748,-1595.19 429.355,-1548.09 446.038,-1521.31"/>
<polygon fill="#757575" stroke="#757575" points="449.233,-1522.79 451.446,-1512.43 443.255,-1519.15 449.233,-1522.79"/>
</g>
<!-- difference.ts -->
<g id="node16" class="node"><title>difference.ts</title>
<path fill="none" stroke="#c6c5fe" d="M344.833,-1492.5C344.833,-1492.5 267.167,-1492.5 267.167,-1492.5 263.333,-1492.5 259.5,-1488.67 259.5,-1484.83 259.5,-1484.83 259.5,-1477.17 259.5,-1477.17 259.5,-1473.33 263.333,-1469.5 267.167,-1469.5 267.167,-1469.5 344.833,-1469.5 344.833,-1469.5 348.667,-1469.5 352.5,-1473.33 352.5,-1477.17 352.5,-1477.17 352.5,-1484.83 352.5,-1484.83 352.5,-1488.67 348.667,-1492.5 344.833,-1492.5"/>
<text text-anchor="middle" x="306" y="-1477.3" font-family="Arial" font-size="14.00" fill="#c6c5fe">difference.ts</text>
</g>
<!-- difference.ts&#45;&gt;_reduceLazy.ts -->
<g id="edge8" class="edge"><title>difference.ts&#45;&gt;_reduceLazy.ts</title>
<path fill="none" stroke="#757575" d="M352.715,-1487.05C365.442,-1488.74 379.515,-1490.6 393.118,-1492.41"/>
<polygon fill="#757575" stroke="#757575" points="393.026,-1495.92 403.399,-1493.77 393.945,-1488.99 393.026,-1495.92"/>
</g>
<!-- difference.ts&#45;&gt;purry.ts -->
<g id="edge9" class="edge"><title>difference.ts&#45;&gt;purry.ts</title>
<path fill="none" stroke="#757575" d="M345.751,-1469.64C350.325,-1467.05 354.574,-1463.87 358,-1460 448.943,-1357.17 458.012,-1178.93 458.304,-1117.52"/>
<polygon fill="#757575" stroke="#757575" points="461.804,-1117.45 458.274,-1107.46 454.804,-1117.47 461.804,-1117.45"/>
</g>
<!-- drop.ts -->
<g id="node17" class="node"><title>drop.ts</title>
<path fill="none" stroke="#c6c5fe" d="M327.833,-1451.5C327.833,-1451.5 284.167,-1451.5 284.167,-1451.5 280.333,-1451.5 276.5,-1447.67 276.5,-1443.83 276.5,-1443.83 276.5,-1436.17 276.5,-1436.17 276.5,-1432.33 280.333,-1428.5 284.167,-1428.5 284.167,-1428.5 327.833,-1428.5 327.833,-1428.5 331.667,-1428.5 335.5,-1432.33 335.5,-1436.17 335.5,-1436.17 335.5,-1443.83 335.5,-1443.83 335.5,-1447.67 331.667,-1451.5 327.833,-1451.5"/>
<text text-anchor="middle" x="306" y="-1436.3" font-family="Arial" font-size="14.00" fill="#c6c5fe">drop.ts</text>
</g>
<!-- drop.ts&#45;&gt;_reduceLazy.ts -->
<g id="edge10" class="edge"><title>drop.ts&#45;&gt;_reduceLazy.ts</title>
<path fill="none" stroke="#757575" d="M335.623,-1451.14C342.928,-1454 350.762,-1457.1 358,-1460 378.911,-1468.39 402.204,-1477.93 421.046,-1485.69"/>
<polygon fill="#757575" stroke="#757575" points="419.878,-1488.99 430.457,-1489.57 422.548,-1482.52 419.878,-1488.99"/>
</g>
<!-- drop.ts&#45;&gt;purry.ts -->
<g id="edge11" class="edge"><title>drop.ts&#45;&gt;purry.ts</title>
<path fill="none" stroke="#757575" d="M335.659,-1433.2C343.801,-1430.05 352.059,-1425.5 358,-1419 439.673,-1329.59 454.653,-1174.54 457.391,-1117.69"/>
<polygon fill="#757575" stroke="#757575" points="460.9,-1117.53 457.801,-1107.4 453.906,-1117.25 460.9,-1117.53"/>
</g>
<!-- dropLast.ts -->
<g id="node18" class="node"><title>dropLast.ts</title>
<path fill="none" stroke="#c6c5fe" d="M341.333,-641.5C341.333,-641.5 270.667,-641.5 270.667,-641.5 266.833,-641.5 263,-637.667 263,-633.833 263,-633.833 263,-626.167 263,-626.167 263,-622.333 266.833,-618.5 270.667,-618.5 270.667,-618.5 341.333,-618.5 341.333,-618.5 345.167,-618.5 349,-622.333 349,-626.167 349,-626.167 349,-633.833 349,-633.833 349,-637.667 345.167,-641.5 341.333,-641.5"/>
<text text-anchor="middle" x="306" y="-626.3" font-family="Arial" font-size="14.00" fill="#c6c5fe">dropLast.ts</text>
</g>
<!-- dropLast.ts&#45;&gt;purry.ts -->
<g id="edge12" class="edge"><title>dropLast.ts&#45;&gt;purry.ts</title>
<path fill="none" stroke="#757575" d="M324.168,-641.289C335.442,-649.586 349.606,-661.847 358,-676 438.797,-812.231 454.343,-1009.73 457.308,-1074.53"/>
<polygon fill="#757575" stroke="#757575" points="453.819,-1074.87 457.718,-1084.72 460.814,-1074.59 453.819,-1074.87"/>
</g>
<!-- equals.ts -->
<g id="node19" class="node"><title>equals.ts</title>
<path fill="none" stroke="#c6c5fe" d="M188.833,-539.5C188.833,-539.5 131.167,-539.5 131.167,-539.5 127.333,-539.5 123.5,-535.667 123.5,-531.833 123.5,-531.833 123.5,-524.167 123.5,-524.167 123.5,-520.333 127.333,-516.5 131.167,-516.5 131.167,-516.5 188.833,-516.5 188.833,-516.5 192.667,-516.5 196.5,-520.333 196.5,-524.167 196.5,-524.167 196.5,-531.833 196.5,-531.833 196.5,-535.667 192.667,-539.5 188.833,-539.5"/>
<text text-anchor="middle" x="160" y="-524.3" font-family="Arial" font-size="14.00" fill="#c6c5fe">equals.ts</text>
</g>
<!-- equals.ts&#45;&gt;purry.ts -->
<g id="edge13" class="edge"><title>equals.ts&#45;&gt;purry.ts</title>
<path fill="none" stroke="#757575" d="M196.603,-532.286C241.472,-539.671 317.597,-559.16 358,-609 417.821,-682.793 448.701,-989.732 456.183,-1074.33"/>
<polygon fill="#757575" stroke="#757575" points="452.7,-1074.68 457.049,-1084.34 459.673,-1074.07 452.7,-1074.68"/>
</g>
<!-- filter.ts -->
<g id="node20" class="node"><title>filter.ts</title>
<path fill="none" stroke="#c6c5fe" d="M327.333,-1738.5C327.333,-1738.5 284.667,-1738.5 284.667,-1738.5 280.833,-1738.5 277,-1734.67 277,-1730.83 277,-1730.83 277,-1723.17 277,-1723.17 277,-1719.33 280.833,-1715.5 284.667,-1715.5 284.667,-1715.5 327.333,-1715.5 327.333,-1715.5 331.167,-1715.5 335,-1719.33 335,-1723.17 335,-1723.17 335,-1730.83 335,-1730.83 335,-1734.67 331.167,-1738.5 327.333,-1738.5"/>
<text text-anchor="middle" x="306" y="-1723.3" font-family="Arial" font-size="14.00" fill="#c6c5fe">filter.ts</text>
</g>
<!-- filter.ts&#45;&gt;_reduceLazy.ts -->
<g id="edge14" class="edge"><title>filter.ts&#45;&gt;_reduceLazy.ts</title>
<path fill="none" stroke="#757575" d="M335.066,-1719.61C343.184,-1716.44 351.577,-1712.03 358,-1706 413.922,-1653.51 442.468,-1563.09 453.05,-1522.19"/>
<polygon fill="#757575" stroke="#757575" points="456.45,-1523.02 455.464,-1512.48 449.656,-1521.34 456.45,-1523.02"/>
</g>
<!-- filter.ts&#45;&gt;_toLazyIndexed.ts -->
<g id="edge15" class="edge"><title>filter.ts&#45;&gt;_toLazyIndexed.ts</title>
<path fill="none" stroke="#757575" d="M335.206,-1733.64C343.329,-1736.65 351.691,-1740.94 358,-1747 386.701,-1774.58 368.135,-1798.75 394,-1829 402.374,-1838.79 413.672,-1847.08 424.445,-1853.59"/>
<polygon fill="#757575" stroke="#757575" points="422.874,-1856.72 433.295,-1858.63 426.338,-1850.64 422.874,-1856.72"/>
</g>
<!-- filter.ts&#45;&gt;_types.ts -->
<g id="edge16" class="edge"><title>filter.ts&#45;&gt;_types.ts</title>
<path fill="none" stroke="#757575" d="M335.191,-1737C342.721,-1739.96 350.772,-1743.38 358,-1747 384.767,-1760.41 413.66,-1778.78 433.473,-1792.04"/>
<polygon fill="#757575" stroke="#757575" points="431.652,-1795.04 441.896,-1797.74 435.574,-1789.24 431.652,-1795.04"/>
</g>
<!-- filter.ts&#45;&gt;purry.ts -->
<g id="edge17" class="edge"><title>filter.ts&#45;&gt;purry.ts</title>
<path fill="none" stroke="#757575" d="M335.182,-1721.09C343.701,-1717.97 352.298,-1713.21 358,-1706 421.087,-1626.22 377.639,-1580.39 394,-1480 416.525,-1341.79 444.51,-1175.77 454.364,-1117.48"/>
<polygon fill="#757575" stroke="#757575" points="457.869,-1117.75 456.086,-1107.3 450.967,-1116.58 457.869,-1117.75"/>
</g>
<!-- find.ts -->
<g id="node21" class="node"><title>find.ts</title>
<path fill="none" stroke="#c6c5fe" d="M325.333,-1943.5C325.333,-1943.5 286.667,-1943.5 286.667,-1943.5 282.833,-1943.5 279,-1939.67 279,-1935.83 279,-1935.83 279,-1928.17 279,-1928.17 279,-1924.33 282.833,-1920.5 286.667,-1920.5 286.667,-1920.5 325.333,-1920.5 325.333,-1920.5 329.167,-1920.5 333,-1924.33 333,-1928.17 333,-1928.17 333,-1935.83 333,-1935.83 333,-1939.67 329.167,-1943.5 325.333,-1943.5"/>
<text text-anchor="middle" x="306" y="-1928.3" font-family="Arial" font-size="14.00" fill="#c6c5fe">find.ts</text>
</g>
<!-- find.ts&#45;&gt;_toLazyIndexed.ts -->
<g id="edge18" class="edge"><title>find.ts&#45;&gt;_toLazyIndexed.ts</title>
<path fill="none" stroke="#757575" d="M333.302,-1921.2C357.534,-1911.25 393.743,-1896.38 420.908,-1885.23"/>
<polygon fill="#757575" stroke="#757575" points="422.548,-1888.34 430.469,-1881.3 419.889,-1881.86 422.548,-1888.34"/>
</g>
<!-- find.ts&#45;&gt;_toSingle.ts -->
<g id="edge19" class="edge"><title>find.ts&#45;&gt;_toSingle.ts</title>
<path fill="none" stroke="#757575" d="M333.302,-1935.48C352.747,-1938.06 379.904,-1941.66 403.911,-1944.84"/>
<polygon fill="#757575" stroke="#757575" points="403.603,-1948.33 413.976,-1946.17 404.522,-1941.39 403.603,-1948.33"/>
</g>
<!-- find.ts&#45;&gt;_types.ts -->
<g id="edge20" class="edge"><title>find.ts&#45;&gt;_types.ts</title>
<path fill="none" stroke="#757575" d="M333.222,-1924.93C341.8,-1921.69 350.931,-1917.17 358,-1911 382.004,-1890.05 371.838,-1871.89 394,-1849 402.971,-1839.73 414.505,-1831.68 425.306,-1825.27"/>
<polygon fill="#757575" stroke="#757575" points="427.145,-1828.25 434.133,-1820.29 423.704,-1822.16 427.145,-1828.25"/>
</g>
<!-- find.ts&#45;&gt;purry.ts -->
<g id="edge21" class="edge"><title>find.ts&#45;&gt;purry.ts</title>
<path fill="none" stroke="#757575" d="M333.102,-1927.17C342.416,-1924.1 352.062,-1919.11 358,-1911 414.76,-1833.44 382.09,-1575.37 394,-1480 411.353,-1341.05 442.538,-1175.49 453.8,-1117.4"/>
<polygon fill="#757575" stroke="#757575" points="457.299,-1117.74 455.776,-1107.26 450.428,-1116.41 457.299,-1117.74"/>
</g>
<!-- findIndex.ts -->
<g id="node22" class="node"><title>findIndex.ts</title>
<path fill="none" stroke="#c6c5fe" d="M342.333,-1984.5C342.333,-1984.5 269.667,-1984.5 269.667,-1984.5 265.833,-1984.5 262,-1980.67 262,-1976.83 262,-1976.83 262,-1969.17 262,-1969.17 262,-1965.33 265.833,-1961.5 269.667,-1961.5 269.667,-1961.5 342.333,-1961.5 342.333,-1961.5 346.167,-1961.5 350,-1965.33 350,-1969.17 350,-1969.17 350,-1976.83 350,-1976.83 350,-1980.67 346.167,-1984.5 342.333,-1984.5"/>
<text text-anchor="middle" x="306" y="-1969.3" font-family="Arial" font-size="14.00" fill="#c6c5fe">findIndex.ts</text>
</g>
<!-- findIndex.ts&#45;&gt;_toLazyIndexed.ts -->
<g id="edge22" class="edge"><title>findIndex.ts&#45;&gt;_toLazyIndexed.ts</title>
<path fill="none" stroke="#757575" d="M338.726,-1961.65C345.275,-1958.83 352,-1955.59 358,-1952 388.69,-1933.66 419.895,-1906.4 439.097,-1888.42"/>
<polygon fill="#757575" stroke="#757575" points="441.716,-1890.76 446.556,-1881.34 436.895,-1885.69 441.716,-1890.76"/>
</g>
<!-- findIndex.ts&#45;&gt;_toSingle.ts -->
<g id="edge23" class="edge"><title>findIndex.ts&#45;&gt;_toSingle.ts</title>
<path fill="none" stroke="#757575" d="M350.271,-1966.98C366.953,-1964.66 386.221,-1961.98 403.808,-1959.54"/>
<polygon fill="#757575" stroke="#757575" points="404.514,-1962.97 413.937,-1958.13 403.55,-1956.04 404.514,-1962.97"/>
</g>
<!-- findIndex.ts&#45;&gt;_types.ts -->
<g id="edge24" class="edge"><title>findIndex.ts&#45;&gt;_types.ts</title>
<path fill="none" stroke="#757575" d="M344.995,-1961.7C349.798,-1959.09 354.313,-1955.89 358,-1952 391.345,-1916.79 363.726,-1886.88 394,-1849 401.655,-1839.42 412.266,-1831.5 422.649,-1825.3"/>
<polygon fill="#757575" stroke="#757575" points="424.597,-1828.23 431.635,-1820.31 421.195,-1822.11 424.597,-1828.23"/>
</g>
<!-- findIndex.ts&#45;&gt;purry.ts -->
<g id="edge25" class="edge"><title>findIndex.ts&#45;&gt;purry.ts</title>
<path fill="none" stroke="#757575" d="M347.458,-1961.62C351.527,-1959.04 355.186,-1955.87 358,-1952 388.909,-1909.44 387.67,-1532.21 394,-1480 410.852,-1340.99 442.347,-1175.46 453.745,-1117.4"/>
<polygon fill="#757575" stroke="#757575" points="457.244,-1117.74 455.746,-1107.26 450.376,-1116.39 457.244,-1117.74"/>
</g>
<!-- first.ts -->
<g id="node23" class="node"><title>first.ts</title>
<path fill="none" stroke="#c6c5fe" d="M179.333,-498.5C179.333,-498.5 140.667,-498.5 140.667,-498.5 136.833,-498.5 133,-494.667 133,-490.833 133,-490.833 133,-483.167 133,-483.167 133,-479.333 136.833,-475.5 140.667,-475.5 140.667,-475.5 179.333,-475.5 179.333,-475.5 183.167,-475.5 187,-479.333 187,-483.167 187,-483.167 187,-490.833 187,-490.833 187,-494.667 183.167,-498.5 179.333,-498.5"/>
<text text-anchor="middle" x="160" y="-483.3" font-family="Arial" font-size="14.00" fill="#c6c5fe">first.ts</text>
</g>
<!-- first.ts&#45;&gt;purry.ts -->
<g id="edge26" class="edge"><title>first.ts&#45;&gt;purry.ts</title>
<path fill="none" stroke="#757575" d="M187.17,-486.28C229.715,-486.641 313.584,-494 358,-543 430.965,-623.495 452.66,-982.466 457.068,-1074.46"/>
<polygon fill="#757575" stroke="#757575" points="453.576,-1074.71 457.532,-1084.54 460.569,-1074.39 453.576,-1074.71"/>
</g>
<!-- flatMap.ts -->
<g id="node24" class="node"><title>flatMap.ts</title>
<path fill="none" stroke="#c6c5fe" d="M190.833,-1271.5C190.833,-1271.5 129.167,-1271.5 129.167,-1271.5 125.333,-1271.5 121.5,-1267.67 121.5,-1263.83 121.5,-1263.83 121.5,-1256.17 121.5,-1256.17 121.5,-1252.33 125.333,-1248.5 129.167,-1248.5 129.167,-1248.5 190.833,-1248.5 190.833,-1248.5 194.667,-1248.5 198.5,-1252.33 198.5,-1256.17 198.5,-1256.17 198.5,-1263.83 198.5,-1263.83 198.5,-1267.67 194.667,-1271.5 190.833,-1271.5"/>
<text text-anchor="middle" x="160" y="-1256.3" font-family="Arial" font-size="14.00" fill="#c6c5fe">flatMap.ts</text>
</g>
<!-- flatMap.ts&#45;&gt;purry.ts -->
<g id="edge28" class="edge"><title>flatMap.ts&#45;&gt;purry.ts</title>
<path fill="none" stroke="#757575" d="M198.842,-1250.38C239.972,-1238.91 306.681,-1217.28 358,-1186 390.605,-1166.13 422.346,-1134.94 441.032,-1114.98"/>
<polygon fill="#757575" stroke="#757575" points="443.782,-1117.16 447.979,-1107.44 438.632,-1112.42 443.782,-1117.16"/>
</g>
<!-- flatten.ts -->
<g id="node25" class="node"><title>flatten.ts</title>
<path fill="none" stroke="#c6c5fe" d="M332.833,-1328.5C332.833,-1328.5 279.167,-1328.5 279.167,-1328.5 275.333,-1328.5 271.5,-1324.67 271.5,-1320.83 271.5,-1320.83 271.5,-1313.17 271.5,-1313.17 271.5,-1309.33 275.333,-1305.5 279.167,-1305.5 279.167,-1305.5 332.833,-1305.5 332.833,-1305.5 336.667,-1305.5 340.5,-1309.33 340.5,-1313.17 340.5,-1313.17 340.5,-1320.83 340.5,-1320.83 340.5,-1324.67 336.667,-1328.5 332.833,-1328.5"/>
<text text-anchor="middle" x="306" y="-1313.3" font-family="Arial" font-size="14.00" fill="#c6c5fe">flatten.ts</text>
</g>
<!-- flatMap.ts&#45;&gt;flatten.ts -->
<g id="edge27" class="edge"><title>flatMap.ts&#45;&gt;flatten.ts</title>
<path fill="none" stroke="#757575" d="M189.45,-1271.26C211.494,-1279.99 242.262,-1292.17 266.507,-1301.76"/>
<polygon fill="#757575" stroke="#757575" points="265.53,-1305.14 276.116,-1305.57 268.107,-1298.63 265.53,-1305.14"/>
</g>
<!-- flatten.ts&#45;&gt;_reduceLazy.ts -->
<g id="edge29" class="edge"><title>flatten.ts&#45;&gt;_reduceLazy.ts</title>
<path fill="none" stroke="#757575" d="M340.572,-1326.55C346.778,-1329.28 352.902,-1332.72 358,-1337 405.677,-1377.03 436.998,-1445.89 450.463,-1480.25"/>
<polygon fill="#757575" stroke="#757575" points="447.242,-1481.63 454.067,-1489.73 453.786,-1479.14 447.242,-1481.63"/>
</g>
<!-- flatten.ts&#45;&gt;purry.ts -->
<g id="edge30" class="edge"><title>flatten.ts&#45;&gt;purry.ts</title>
<path fill="none" stroke="#757575" d="M340.606,-1307.2C346.88,-1304.31 353.02,-1300.63 358,-1296 412.697,-1245.16 441.656,-1157.8 452.674,-1117.51"/>
<polygon fill="#757575" stroke="#757575" points="456.101,-1118.24 455.258,-1107.68 449.331,-1116.46 456.101,-1118.24"/>
</g>
<!-- flattenDeep.ts -->
<g id="node26" class="node"><title>flattenDeep.ts</title>
<path fill="none" stroke="#c6c5fe" d="M349.833,-1410.5C349.833,-1410.5 262.167,-1410.5 262.167,-1410.5 258.333,-1410.5 254.5,-1406.67 254.5,-1402.83 254.5,-1402.83 254.5,-1395.17 254.5,-1395.17 254.5,-1391.33 258.333,-1387.5 262.167,-1387.5 262.167,-1387.5 349.833,-1387.5 349.833,-1387.5 353.667,-1387.5 357.5,-1391.33 357.5,-1395.17 357.5,-1395.17 357.5,-1402.83 357.5,-1402.83 357.5,-1406.67 353.667,-1410.5 349.833,-1410.5"/>
<text text-anchor="middle" x="306" y="-1395.3" font-family="Arial" font-size="14.00" fill="#c6c5fe">flattenDeep.ts</text>
</g>
<!-- flattenDeep.ts&#45;&gt;_reduceLazy.ts -->
<g id="edge31" class="edge"><title>flattenDeep.ts&#45;&gt;_reduceLazy.ts</title>
<path fill="none" stroke="#757575" d="M340.36,-1410.34C346.39,-1412.87 352.503,-1415.78 358,-1419 388.844,-1437.08 420.011,-1464.4 439.163,-1482.46"/>
<polygon fill="#757575" stroke="#757575" points="436.957,-1485.2 446.6,-1489.59 441.798,-1480.14 436.957,-1485.2"/>
</g>
<!-- flattenDeep.ts&#45;&gt;purry.ts -->
<g id="edge32" class="edge"><title>flattenDeep.ts&#45;&gt;purry.ts</title>
<path fill="none" stroke="#757575" d="M344.979,-1387.69C349.785,-1385.08 354.304,-1381.88 358,-1378 430.718,-1301.56 450.995,-1168.92 456.27,-1117.36"/>
<polygon fill="#757575" stroke="#757575" points="459.757,-1117.66 457.203,-1107.37 452.788,-1117 459.757,-1117.66"/>
</g>
<!-- forEach.ts -->
<g id="node27" class="node"><title>forEach.ts</title>
<path fill="none" stroke="#c6c5fe" d="M338.333,-1902.5C338.333,-1902.5 273.667,-1902.5 273.667,-1902.5 269.833,-1902.5 266,-1898.67 266,-1894.83 266,-1894.83 266,-1887.17 266,-1887.17 266,-1883.33 269.833,-1879.5 273.667,-1879.5 273.667,-1879.5 338.333,-1879.5 338.333,-1879.5 342.167,-1879.5 346,-1883.33 346,-1887.17 346,-1887.17 346,-1894.83 346,-1894.83 346,-1898.67 342.167,-1902.5 338.333,-1902.5"/>
<text text-anchor="middle" x="306" y="-1887.3" font-family="Arial" font-size="14.00" fill="#c6c5fe">forEach.ts</text>
</g>
<!-- forEach.ts&#45;&gt;_reduceLazy.ts -->
<g id="edge33" class="edge"><title>forEach.ts&#45;&gt;_reduceLazy.ts</title>
<path fill="none" stroke="#757575" d="M345.764,-1879.65C350.335,-1877.06 354.581,-1873.88 358,-1870 381.794,-1843 437.038,-1596.94 453.372,-1522.34"/>
<polygon fill="#757575" stroke="#757575" points="456.859,-1522.77 455.571,-1512.26 450.02,-1521.28 456.859,-1522.77"/>
</g>
<!-- forEach.ts&#45;&gt;_toLazyIndexed.ts -->
<g id="edge34" class="edge"><title>forEach.ts&#45;&gt;_toLazyIndexed.ts</title>
<path fill="none" stroke="#757575" d="M346.279,-1885.54C357.725,-1883.95 370.627,-1882.15 383.49,-1880.36"/>
<polygon fill="#757575" stroke="#757575" points="384.347,-1883.78 393.769,-1878.93 383.382,-1876.84 384.347,-1883.78"/>
</g>
<!-- forEach.ts&#45;&gt;_types.ts -->
<g id="edge35" class="edge"><title>forEach.ts&#45;&gt;_types.ts</title>
<path fill="none" stroke="#757575" d="M336.751,-1879.67C343.813,-1876.73 351.253,-1873.42 358,-1870 365.415,-1866.24 404.156,-1842.4 431.179,-1825.66"/>
<polygon fill="#757575" stroke="#757575" points="433.177,-1828.54 439.832,-1820.3 429.489,-1822.59 433.177,-1828.54"/>
</g>
<!-- forEach.ts&#45;&gt;purry.ts -->
<g id="edge36" class="edge"><title>forEach.ts&#45;&gt;purry.ts</title>
<path fill="none" stroke="#757575" d="M346.412,-1880.18C350.883,-1877.5 354.928,-1874.16 358,-1870 409.706,-1799.99 382.838,-1566.32 394,-1480 411.958,-1341.13 442.769,-1175.52 453.866,-1117.41"/>
<polygon fill="#757575" stroke="#757575" points="457.366,-1117.74 455.812,-1107.26 450.491,-1116.43 457.366,-1117.74"/>
</g>
<!-- groupBy.ts -->
<g id="node28" class="node"><title>groupBy.ts</title>
<path fill="none" stroke="#c6c5fe" d="M339.833,-1615.5C339.833,-1615.5 272.167,-1615.5 272.167,-1615.5 268.333,-1615.5 264.5,-1611.67 264.5,-1607.83 264.5,-1607.83 264.5,-1600.17 264.5,-1600.17 264.5,-1596.33 268.333,-1592.5 272.167,-1592.5 272.167,-1592.5 339.833,-1592.5 339.833,-1592.5 343.667,-1592.5 347.5,-1596.33 347.5,-1600.17 347.5,-1600.17 347.5,-1607.83 347.5,-1607.83 347.5,-1611.67 343.667,-1615.5 339.833,-1615.5"/>
<text text-anchor="middle" x="306" y="-1600.3" font-family="Arial" font-size="14.00" fill="#c6c5fe">groupBy.ts</text>
</g>
<!-- groupBy.ts&#45;&gt;_types.ts -->
<g id="edge37" class="edge"><title>groupBy.ts&#45;&gt;_types.ts</title>
<path fill="none" stroke="#757575" d="M344.966,-1615.35C349.662,-1617.74 354.154,-1620.6 358,-1624 410.007,-1670.03 439.939,-1749.8 451.887,-1787.75"/>
<polygon fill="#757575" stroke="#757575" points="448.652,-1789.14 454.904,-1797.7 455.35,-1787.11 448.652,-1789.14"/>
</g>
<!-- groupBy.ts&#45;&gt;purry.ts -->
<g id="edge38" class="edge"><title>groupBy.ts&#45;&gt;purry.ts</title>
<path fill="none" stroke="#757575" d="M346.243,-1592.7C350.682,-1590.1 354.764,-1586.91 358,-1583 388.543,-1546.1 441.317,-1206.95 454.794,-1117.53"/>
<polygon fill="#757575" stroke="#757575" points="458.281,-1117.88 456.303,-1107.47 451.358,-1116.84 458.281,-1117.88"/>
</g>
<!-- identity.ts -->
<g id="node29" class="node"><title>identity.ts</title>
<path fill="none" stroke="#cfffac" d="M190.333,-1148.5C190.333,-1148.5 129.667,-1148.5 129.667,-1148.5 125.833,-1148.5 122,-1144.67 122,-1140.83 122,-1140.83 122,-1133.17 122,-1133.17 122,-1129.33 125.833,-1125.5 129.667,-1125.5 129.667,-1125.5 190.333,-1125.5 190.333,-1125.5 194.167,-1125.5 198,-1129.33 198,-1133.17 198,-1133.17 198,-1140.83 198,-1140.83 198,-1144.67 194.167,-1148.5 190.333,-1148.5"/>
<text text-anchor="middle" x="160" y="-1133.3" font-family="Arial" font-size="14.00" fill="#cfffac">identity.ts</text>
</g>
<!-- index.ts -->
<g id="node30" class="node"><title>index.ts</title>
<path fill="none" stroke="#c6c5fe" d="M57.8333,-1066.5C57.8333,-1066.5 8.16667,-1066.5 8.16667,-1066.5 4.33333,-1066.5 0.5,-1062.67 0.5,-1058.83 0.5,-1058.83 0.5,-1051.17 0.5,-1051.17 0.5,-1047.33 4.33333,-1043.5 8.16667,-1043.5 8.16667,-1043.5 57.8333,-1043.5 57.8333,-1043.5 61.6667,-1043.5 65.5,-1047.33 65.5,-1051.17 65.5,-1051.17 65.5,-1058.83 65.5,-1058.83 65.5,-1062.67 61.6667,-1066.5 57.8333,-1066.5"/>
<text text-anchor="middle" x="33" y="-1051.3" font-family="Arial" font-size="14.00" fill="#c6c5fe">index.ts</text>
</g>
<!-- index.ts&#45;&gt;addProp.ts -->
<g id="edge39" class="edge"><title>index.ts&#45;&gt;addProp.ts</title>
<path fill="none" stroke="#757575" d="M34.3436,-1043.6C36.9161,-961.99 54.3877,-468.605 102,-425 144.535,-386.045 215.627,-395.253 261.395,-406.97"/>
<polygon fill="#757575" stroke="#757575" points="260.755,-410.423 271.321,-409.652 262.58,-403.665 260.755,-410.423"/>
</g>
<!-- index.ts&#45;&gt;purry.ts -->
<g id="edge76" class="edge"><title>index.ts&#45;&gt;purry.ts</title>
<path fill="none" stroke="#757575" d="M34.1903,-1043.58C35.762,-956.073 47.9333,-394.136 102,-345 121.596,-327.191 356.772,-355.831 358,-357 411.651,-408.084 449.302,-958.534 456.677,-1074.59"/>
<polygon fill="#757575" stroke="#757575" points="453.192,-1074.95 457.313,-1084.71 460.179,-1074.51 453.192,-1074.95"/>
</g>
<!-- index.ts&#45;&gt;anyPass.ts -->
<g id="edge40" class="edge"><title>index.ts&#45;&gt;anyPass.ts</title>
<path fill="none" stroke="#757575" d="M34.1727,-1043.66C35.6428,-954.297 47.3736,-365.678 102,-312 141.018,-273.66 207.07,-276.201 253.198,-284.202"/>
<polygon fill="#757575" stroke="#757575" points="252.828,-287.694 263.302,-286.096 254.118,-280.814 252.828,-287.694"/>
</g>
<!-- index.ts&#45;&gt;chunk.ts -->
<g id="edge41" class="edge"><title>index.ts&#45;&gt;chunk.ts</title>
<path fill="none" stroke="#757575" d="M34.0946,-1043.47C34.9831,-948.578 43.2015,-298.576 102,-238 142.651,-196.12 214.918,-198.577 261.359,-205.676"/>
<polygon fill="#757575" stroke="#757575" points="260.99,-209.163 271.428,-207.349 262.137,-202.257 260.99,-209.163"/>
</g>
<!-- index.ts&#45;&gt;clamp.ts -->
<g id="edge42" class="edge"><title>index.ts&#45;&gt;clamp.ts</title>
<path fill="none" stroke="#757575" d="M34.1335,-1043.71C35.3236,-952.148 45.4405,-333.193 102,-276 142.861,-234.682 214.743,-238.114 261.09,-245.905"/>
<polygon fill="#757575" stroke="#757575" points="260.679,-249.388 271.144,-247.73 261.93,-242.5 260.679,-249.388"/>
</g>
<!-- index.ts&#45;&gt;clone.ts -->
<g id="edge43" class="edge"><title>index.ts&#45;&gt;clone.ts</title>
<path fill="none" stroke="#757575" d="M34.2829,-1066.44C36.6662,-1159.19 54.4849,-1786.57 102,-1854 106.083,-1859.79 111.782,-1864.32 118.008,-1867.86"/>
<polygon fill="#757575" stroke="#757575" points="116.852,-1871.18 127.382,-1872.35 119.878,-1864.87 116.852,-1871.18"/>
</g>
<!-- index.ts&#45;&gt;type.ts -->
<g id="edge90" class="edge"><title>index.ts&#45;&gt;type.ts</title>
<path fill="none" stroke="#757575" d="M34.108,-1066.42C35.0861,-1157.71 43.7783,-1766.72 102,-1820 140.035,-1854.8 169.81,-1838.32 218,-1820 238.01,-1812.39 235.752,-1799.19 254,-1788 258.188,-1785.43 262.762,-1783.08 267.396,-1780.98"/>
<polygon fill="#757575" stroke="#757575" points="269.027,-1784.09 276.889,-1776.98 266.314,-1777.63 269.027,-1784.09"/>
</g>
<!-- index.ts&#45;&gt;compact.ts -->
<g id="edge44" class="edge"><title>index.ts&#45;&gt;compact.ts</title>
<path fill="none" stroke="#757575" d="M34.3948,-1066.38C37.5073,-1153.54 59.1033,-1713.73 102,-1774 104.519,-1777.54 107.639,-1780.61 111.112,-1783.26"/>
<polygon fill="#757575" stroke="#757575" points="109.42,-1786.34 119.737,-1788.75 113.176,-1780.43 109.42,-1786.34"/>
</g>
<!-- index.ts&#45;&gt;concat.ts -->
<g id="edge45" class="edge"><title>index.ts&#45;&gt;concat.ts</title>
<path fill="none" stroke="#757575" d="M34.0497,-1043.53C34.5798,-946.28 40.4903,-261.925 102,-198 141.919,-156.514 212.767,-157.97 259.312,-164.603"/>
<polygon fill="#757575" stroke="#757575" points="259.012,-168.098 269.432,-166.18 260.091,-161.182 259.012,-168.098"/>
</g>
<!-- index.ts&#45;&gt;createPipe.ts -->
<g id="edge46" class="edge"><title>index.ts&#45;&gt;createPipe.ts</title>
<path fill="none" stroke="#757575" d="M33.9031,-1066.49C33.5103,-1138.33 34.5756,-1525.82 102,-1618 104.565,-1621.51 107.716,-1624.55 111.209,-1627.19"/>
<polygon fill="#757575" stroke="#757575" points="109.539,-1630.28 119.864,-1632.66 113.276,-1624.36 109.539,-1630.28"/>
</g>
<!-- index.ts&#45;&gt;pipe.ts -->
<g id="edge74" class="edge"><title>index.ts&#45;&gt;pipe.ts</title>
<path fill="none" stroke="#757575" d="M34.3747,-1066.29C37.1344,-1146.01 55.5159,-1622.42 102,-1664 125.558,-1685.07 215.045,-1667.5 267.006,-1654.94"/>
<polygon fill="#757575" stroke="#757575" points="267.996,-1658.3 276.868,-1652.51 266.321,-1651.51 267.996,-1658.3"/>
</g>
<!-- index.ts&#45;&gt;difference.ts -->
<g id="edge47" class="edge"><title>index.ts&#45;&gt;difference.ts</title>
<path fill="none" stroke="#757575" d="M34.378,-1066.48C36.5155,-1124.17 48.9546,-1381.94 102,-1437 139.682,-1476.11 203.288,-1484.43 249.272,-1484.66"/>
<polygon fill="#757575" stroke="#757575" points="249.412,-1488.15 259.385,-1484.58 249.357,-1481.15 249.412,-1488.15"/>
</g>
<!-- index.ts&#45;&gt;drop.ts -->
<g id="edge48" class="edge"><title>index.ts&#45;&gt;drop.ts</title>
<path fill="none" stroke="#757575" d="M34.5829,-1066.49C37.5833,-1120.93 53.0891,-1352.3 102,-1401 145.174,-1443.99 220.366,-1447.11 266.119,-1444.34"/>
<polygon fill="#757575" stroke="#757575" points="266.528,-1447.82 276.246,-1443.6 266.018,-1440.84 266.528,-1447.82"/>
</g>
<!-- index.ts&#45;&gt;dropLast.ts -->
<g id="edge49" class="edge"><title>index.ts&#45;&gt;dropLast.ts</title>
<path fill="none" stroke="#757575" d="M33.9278,-1043.61C33.796,-981.448 36.619,-683.793 102,-628 146.865,-589.715 219.818,-602.337 264.966,-615.671"/>
<polygon fill="#757575" stroke="#757575" points="264.121,-619.074 274.709,-618.687 266.191,-612.387 264.121,-619.074"/>
</g>
<!-- index.ts&#45;&gt;equals.ts -->
<g id="edge50" class="edge"><title>index.ts&#45;&gt;equals.ts</title>
<path fill="none" stroke="#757575" d="M33.9659,-1043.71C33.9836,-976.348 37.2364,-627.544 102,-548 105.309,-543.936 109.497,-540.697 114.096,-538.115"/>
<polygon fill="#757575" stroke="#757575" points="115.671,-541.244 123.323,-533.916 112.772,-534.873 115.671,-541.244"/>
</g>
<!-- index.ts&#45;&gt;filter.ts -->
<g id="edge51" class="edge"><title>index.ts&#45;&gt;filter.ts</title>
<path fill="none" stroke="#757575" d="M34.3178,-1066.3C36.7631,-1149.41 53.8007,-1663.97 102,-1711 145.285,-1753.23 221.364,-1746.17 267.083,-1736.83"/>
<polygon fill="#757575" stroke="#757575" points="267.881,-1740.24 276.908,-1734.69 266.393,-1733.4 267.881,-1740.24"/>
</g>
<!-- index.ts&#45;&gt;find.ts -->
<g id="edge52" class="edge"><title>index.ts&#45;&gt;find.ts</title>
<path fill="none" stroke="#757575" d="M33.9269,-1066.42C33.3931,-1167.84 31.8849,-1911.87 102,-1977 139.772,-2012.09 168.801,-1992.41 218,-1977 236.589,-1971.18 236.816,-1961.17 254,-1952 258.877,-1949.4 264.168,-1946.94 269.434,-1944.71"/>
<polygon fill="#757575" stroke="#757575" points="270.828,-1947.92 278.792,-1940.93 268.208,-1941.43 270.828,-1947.92"/>
</g>
<!-- index.ts&#45;&gt;findIndex.ts -->
<g id="edge53" class="edge"><title>index.ts&#45;&gt;findIndex.ts</title>
<path fill="none" stroke="#757575" d="M33.9057,-1066.38C33.1696,-1169.05 30.1295,-1933.12 102,-2000 149.646,-2044.34 232.958,-2011.46 276.561,-1989.12"/>
<polygon fill="#757575" stroke="#757575" points="278.277,-1992.17 285.487,-1984.41 275.01,-1985.98 278.277,-1992.17"/>
</g>
<!-- index.ts&#45;&gt;first.ts -->
<g id="edge54" class="edge"><title>index.ts&#45;&gt;first.ts</title>
<path fill="none" stroke="#757575" d="M33.8408,-1043.74C33.0671,-973.301 32.2121,-593.584 102,-507 107.334,-500.382 115.004,-495.95 122.995,-492.983"/>
<polygon fill="#757575" stroke="#757575" points="124.201,-496.276 132.768,-490.042 122.184,-489.572 124.201,-496.276"/>
</g>
<!-- index.ts&#45;&gt;flatMap.ts -->
<g id="edge55" class="edge"><title>index.ts&#45;&gt;flatMap.ts</title>
<path fill="none" stroke="#757575" d="M34.9899,-1066.7C38.3165,-1098.76 51.8857,-1188.94 102,-1239 105.022,-1242.02 108.514,-1244.61 112.252,-1246.83"/>
<polygon fill="#757575" stroke="#757575" points="110.807,-1250.02 121.316,-1251.37 113.941,-1243.76 110.807,-1250.02"/>
</g>
<!-- index.ts&#45;&gt;flatten.ts -->
<g id="edge56" class="edge"><title>index.ts&#45;&gt;flatten.ts</title>
<path fill="none" stroke="#757575" d="M35.3278,-1066.34C40.8191,-1111.1 63.3022,-1274.69 102,-1306 146.55,-1342.04 216.24,-1336.79 261.265,-1328.13"/>
<polygon fill="#757575" stroke="#757575" points="262.225,-1331.5 271.314,-1326.06 260.814,-1324.65 262.225,-1331.5"/>
</g>
<!-- index.ts&#45;&gt;flattenDeep.ts -->
<g id="edge57" class="edge"><title>index.ts&#45;&gt;flattenDeep.ts</title>
<path fill="none" stroke="#757575" d="M34.8048,-1066.41C38.6463,-1117.47 56.8354,-1324.39 102,-1367 139.439,-1402.32 199.148,-1407.99 244.137,-1406.22"/>
<polygon fill="#757575" stroke="#757575" points="244.564,-1409.7 254.365,-1405.68 244.195,-1402.71 244.564,-1409.7"/>
</g>
<!-- index.ts&#45;&gt;forEach.ts -->
<g id="edge58" class="edge"><title>index.ts&#45;&gt;forEach.ts</title>
<path fill="none" stroke="#757575" d="M33.9515,-1066.43C33.6429,-1166.31 33.7825,-1888.76 102,-1952 139.808,-1987.05 171.033,-1973.26 218,-1952 240.091,-1942 234.151,-1924.93 254,-1911 256.078,-1909.54 258.276,-1908.17 260.548,-1906.88"/>
<polygon fill="#757575" stroke="#757575" points="262.219,-1909.96 269.573,-1902.33 259.068,-1903.71 262.219,-1909.96"/>
</g>
<!-- index.ts&#45;&gt;groupBy.ts -->
<g id="edge59" class="edge"><title>index.ts&#45;&gt;groupBy.ts</title>
<path fill="none" stroke="#757575" d="M33.9018,-1066.58C33.5676,-1134.15 35.216,-1477.07 102,-1552 139.921,-1594.54 207.446,-1604.49 254.145,-1605.81"/>
<polygon fill="#757575" stroke="#757575" points="254.307,-1609.31 264.361,-1605.97 254.417,-1602.31 254.307,-1609.31"/>
</g>
<!-- index.ts&#45;&gt;identity.ts -->
<g id="edge60" class="edge"><title>index.ts&#45;&gt;identity.ts</title>
<path fill="none" stroke="#757575" d="M44.0468,-1066.32C56.4959,-1079.75 78.9041,-1102.09 102,-1116 105.36,-1118.02 108.946,-1119.9 112.622,-1121.64"/>
<polygon fill="#757575" stroke="#757575" points="111.301,-1124.88 121.868,-1125.64 114.085,-1118.45 111.301,-1124.88"/>
</g>
<!-- indexBy.ts -->
<g id="node31" class="node"><title>indexBy.ts</title>
<path fill="none" stroke="#c6c5fe" d="M338.833,-1574.5C338.833,-1574.5 273.167,-1574.5 273.167,-1574.5 269.333,-1574.5 265.5,-1570.67 265.5,-1566.83 265.5,-1566.83 265.5,-1559.17 265.5,-1559.17 265.5,-1555.33 269.333,-1551.5 273.167,-1551.5 273.167,-1551.5 338.833,-1551.5 338.833,-1551.5 342.667,-1551.5 346.5,-1555.33 346.5,-1559.17 346.5,-1559.17 346.5,-1566.83 346.5,-1566.83 346.5,-1570.67 342.667,-1574.5 338.833,-1574.5"/>
<text text-anchor="middle" x="306" y="-1559.3" font-family="Arial" font-size="14.00" fill="#c6c5fe">indexBy.ts</text>
</g>
<!-- index.ts&#45;&gt;indexBy.ts -->
<g id="edge61" class="edge"><title>index.ts&#45;&gt;indexBy.ts</title>
<path fill="none" stroke="#757575" d="M34.0393,-1066.51C34.4959,-1130.79 39.9148,-1444.78 102,-1513 140.497,-1555.3 208.518,-1564.47 255.129,-1565.27"/>
<polygon fill="#757575" stroke="#757575" points="255.299,-1568.77 265.316,-1565.32 255.332,-1561.77 255.299,-1568.77"/>
</g>
<!-- intersection.ts -->
<g id="node32" class="node"><title>intersection.ts</title>
<path fill="none" stroke="#c6c5fe" d="M349.833,-1287.5C349.833,-1287.5 262.167,-1287.5 262.167,-1287.5 258.333,-1287.5 254.5,-1283.67 254.5,-1279.83 254.5,-1279.83 254.5,-1272.17 254.5,-1272.17 254.5,-1268.33 258.333,-1264.5 262.167,-1264.5 262.167,-1264.5 349.833,-1264.5 349.833,-1264.5 353.667,-1264.5 357.5,-1268.33 357.5,-1272.17 357.5,-1272.17 357.5,-1279.83 357.5,-1279.83 357.5,-1283.67 353.667,-1287.5 349.833,-1287.5"/>
<text text-anchor="middle" x="306" y="-1272.3" font-family="Arial" font-size="14.00" fill="#c6c5fe">intersection.ts</text>
</g>
<!-- index.ts&#45;&gt;intersection.ts -->
<g id="edge62" class="edge"><title>index.ts&#45;&gt;intersection.ts</title>
<path fill="none" stroke="#757575" d="M35.6457,-1066.36C41.9759,-1108.3 66.205,-1253.42 102,-1280 148.836,-1314.77 219.946,-1302.92 264.377,-1290.19"/>
<polygon fill="#757575" stroke="#757575" points="265.408,-1293.53 273.978,-1287.3 263.394,-1286.83 265.408,-1293.53"/>
</g>
<!-- last.ts -->
<g id="node33" class="node"><title>last.ts</title>
<path fill="none" stroke="#cfffac" d="M179.333,-1025.5C179.333,-1025.5 140.667,-1025.5 140.667,-1025.5 136.833,-1025.5 133,-1021.67 133,-1017.83 133,-1017.83 133,-1010.17 133,-1010.17 133,-1006.33 136.833,-1002.5 140.667,-1002.5 140.667,-1002.5 179.333,-1002.5 179.333,-1002.5 183.167,-1002.5 187,-1006.33 187,-1010.17 187,-1010.17 187,-1017.83 187,-1017.83 187,-1021.67 183.167,-1025.5 179.333,-1025.5"/>
<text text-anchor="middle" x="160" y="-1010.3" font-family="Arial" font-size="14.00" fill="#cfffac">last.ts</text>
</g>
<!-- index.ts&#45;&gt;last.ts -->
<g id="edge63" class="edge"><title>index.ts&#45;&gt;last.ts</title>
<path fill="none" stroke="#757575" d="M65.5428,-1044.65C83.1177,-1038.89 105.062,-1031.69 123.269,-1025.72"/>
<polygon fill="#757575" stroke="#757575" points="124.537,-1028.99 132.948,-1022.55 122.355,-1022.34 124.537,-1028.99"/>
</g>
<!-- map.ts -->
<g id="node34" class="node"><title>map.ts</title>
<path fill="none" stroke="#c6c5fe" d="M327.833,-1861.5C327.833,-1861.5 284.167,-1861.5 284.167,-1861.5 280.333,-1861.5 276.5,-1857.67 276.5,-1853.83 276.5,-1853.83 276.5,-1846.17 276.5,-1846.17 276.5,-1842.33 280.333,-1838.5 284.167,-1838.5 284.167,-1838.5 327.833,-1838.5 327.833,-1838.5 331.667,-1838.5 335.5,-1842.33 335.5,-1846.17 335.5,-1846.17 335.5,-1853.83 335.5,-1853.83 335.5,-1857.67 331.667,-1861.5 327.833,-1861.5"/>
<text text-anchor="middle" x="306" y="-1846.3" font-family="Arial" font-size="14.00" fill="#c6c5fe">map.ts</text>
</g>
<!-- index.ts&#45;&gt;map.ts -->
<g id="edge64" class="edge"><title>index.ts&#45;&gt;map.ts</title>
<path fill="none" stroke="#757575" d="M33.9787,-1066.4C33.9098,-1164.56 35.7489,-1864.72 102,-1926 139.847,-1961.01 172.749,-1950.7 218,-1926 243.97,-1911.82 231.116,-1888.76 254,-1870 257.843,-1866.85 262.242,-1864.15 266.81,-1861.85"/>
<polygon fill="#757575" stroke="#757575" points="268.555,-1864.91 276.299,-1857.68 265.736,-1858.5 268.555,-1864.91"/>
</g>
<!-- mapKeys.ts -->
<g id="node35" class="node"><title>mapKeys.ts</title>
<path fill="none" stroke="#cfffac" d="M197.333,-945.5C197.333,-945.5 122.667,-945.5 122.667,-945.5 118.833,-945.5 115,-941.667 115,-937.833 115,-937.833 115,-930.167 115,-930.167 115,-926.333 118.833,-922.5 122.667,-922.5 122.667,-922.5 197.333,-922.5 197.333,-922.5 201.167,-922.5 205,-926.333 205,-930.167 205,-930.167 205,-937.833 205,-937.833 205,-941.667 201.167,-945.5 197.333,-945.5"/>
<text text-anchor="middle" x="160" y="-930.3" font-family="Arial" font-size="14.00" fill="#cfffac">mapKeys.ts</text>
</g>
<!-- index.ts&#45;&gt;mapKeys.ts -->
<g id="edge65" class="edge"><title>index.ts&#45;&gt;mapKeys.ts</title>
<path fill="none" stroke="#757575" d="M39.6133,-1043.58C49.6876,-1024.11 72.5608,-984.235 102,-960 106.626,-956.191 111.901,-952.818 117.332,-949.869"/>
<polygon fill="#757575" stroke="#757575" points="119.128,-952.884 126.53,-945.304 116.016,-946.614 119.128,-952.884"/>
</g>
<!-- merge.ts -->
<g id="node36" class="node"><title>merge.ts</title>
<path fill="none" stroke="#c6c5fe" d="M187.833,-104.5C187.833,-104.5 132.167,-104.5 132.167,-104.5 128.333,-104.5 124.5,-100.667 124.5,-96.8333 124.5,-96.8333 124.5,-89.1667 124.5,-89.1667 124.5,-85.3333 128.333,-81.5 132.167,-81.5 132.167,-81.5 187.833,-81.5 187.833,-81.5 191.667,-81.5 195.5,-85.3333 195.5,-89.1667 195.5,-89.1667 195.5,-96.8333 195.5,-96.8333 195.5,-100.667 191.667,-104.5 187.833,-104.5"/>
<text text-anchor="middle" x="160" y="-89.3" font-family="Arial" font-size="14.00" fill="#c6c5fe">merge.ts</text>
</g>
<!-- index.ts&#45;&gt;merge.ts -->
<g id="edge66" class="edge"><title>index.ts&#45;&gt;merge.ts</title>
<path fill="none" stroke="#757575" d="M34.0775,-1043.48C34.8613,-941.232 42.6237,-190.669 102,-113 105.424,-108.522 109.922,-105.042 114.894,-102.34"/>
<polygon fill="#757575" stroke="#757575" points="116.459,-105.475 124.223,-98.2661 113.658,-99.0604 116.459,-105.475"/>
</g>
<!-- mergeAll.ts -->
<g id="node37" class="node"><title>mergeAll.ts</title>
<path fill="none" stroke="#cfffac" d="M195.833,-863.5C195.833,-863.5 124.167,-863.5 124.167,-863.5 120.333,-863.5 116.5,-859.667 116.5,-855.833 116.5,-855.833 116.5,-848.167 116.5,-848.167 116.5,-844.333 120.333,-840.5 124.167,-840.5 124.167,-840.5 195.833,-840.5 195.833,-840.5 199.667,-840.5 203.5,-844.333 203.5,-848.167 203.5,-848.167 203.5,-855.833 203.5,-855.833 203.5,-859.667 199.667,-863.5 195.833,-863.5"/>
<text text-anchor="middle" x="160" y="-848.3" font-family="Arial" font-size="14.00" fill="#cfffac">mergeAll.ts</text>
</g>
<!-- index.ts&#45;&gt;mergeAll.ts -->
<g id="edge67" class="edge"><title>index.ts&#45;&gt;mergeAll.ts</title>
<path fill="none" stroke="#757575" d="M34.9699,-1043.32C38.2453,-1011.33 51.6959,-921.391 102,-872 103.672,-870.358 105.486,-868.851 107.406,-867.467"/>
<polygon fill="#757575" stroke="#757575" points="109.555,-870.262 116.374,-862.154 105.987,-864.239 109.555,-870.262"/>
</g>
<!-- noop.ts -->
<g id="node38" class="node"><title>noop.ts</title>
<path fill="none" stroke="#cfffac" d="M183.333,-822.5C183.333,-822.5 136.667,-822.5 136.667,-822.5 132.833,-822.5 129,-818.667 129,-814.833 129,-814.833 129,-807.167 129,-807.167 129,-803.333 132.833,-799.5 136.667,-799.5 136.667,-799.5 183.333,-799.5 183.333,-799.5 187.167,-799.5 191,-803.333 191,-807.167 191,-807.167 191,-814.833 191,-814.833 191,-818.667 187.167,-822.5 183.333,-822.5"/>
<text text-anchor="middle" x="160" y="-807.3" font-family="Arial" font-size="14.00" fill="#cfffac">noop.ts</text>
</g>
<!-- index.ts&#45;&gt;noop.ts -->
<g id="edge68" class="edge"><title>index.ts&#45;&gt;noop.ts</title>
<path fill="none" stroke="#757575" d="M34.0367,-1043.71C34.772,-1007.6 41.9695,-893.652 102,-831 106.777,-826.014 112.868,-822.27 119.28,-819.458"/>
<polygon fill="#757575" stroke="#757575" points="120.606,-822.7 128.789,-815.971 118.196,-816.128 120.606,-822.7"/>
</g>
<!-- objOf.ts -->
<g id="node39" class="node"><title>objOf.ts</title>
<path fill="none" stroke="#c6c5fe" d="M184.833,-22.5C184.833,-22.5 135.167,-22.5 135.167,-22.5 131.333,-22.5 127.5,-18.6667 127.5,-14.8333 127.5,-14.8333 127.5,-7.16667 127.5,-7.16667 127.5,-3.33333 131.333,0.5 135.167,0.5 135.167,0.5 184.833,0.5 184.833,0.5 188.667,0.5 192.5,-3.33333 192.5,-7.16667 192.5,-7.16667 192.5,-14.8333 192.5,-14.8333 192.5,-18.6667 188.667,-22.5 184.833,-22.5"/>
<text text-anchor="middle" x="160" y="-7.3" font-family="Arial" font-size="14.00" fill="#c6c5fe">objOf.ts</text>
</g>
<!-- index.ts&#45;&gt;objOf.ts -->
<g id="edge69" class="edge"><title>index.ts&#45;&gt;objOf.ts</title>
<path fill="none" stroke="#757575" d="M34.0071,-1043.51C34.1697,-936.487 37.5217,-115.848 102,-31 106.135,-25.5582 111.859,-21.5909 118.095,-18.7001"/>
<polygon fill="#757575" stroke="#757575" points="119.335,-21.9734 127.472,-15.1886 116.88,-15.418 119.335,-21.9734"/>
</g>
<!-- omit.ts -->
<g id="node40" class="node"><title>omit.ts</title>
<path fill="none" stroke="#c6c5fe" d="M181.333,-1230.5C181.333,-1230.5 138.667,-1230.5 138.667,-1230.5 134.833,-1230.5 131,-1226.67 131,-1222.83 131,-1222.83 131,-1215.17 131,-1215.17 131,-1211.33 134.833,-1207.5 138.667,-1207.5 138.667,-1207.5 181.333,-1207.5 181.333,-1207.5 185.167,-1207.5 189,-1211.33 189,-1215.17 189,-1215.17 189,-1222.83 189,-1222.83 189,-1226.67 185.167,-1230.5 181.333,-1230.5"/>
<text text-anchor="middle" x="160" y="-1215.3" font-family="Arial" font-size="14.00" fill="#c6c5fe">omit.ts</text>
</g>
<!-- index.ts&#45;&gt;omit.ts -->
<g id="edge70" class="edge"><title>index.ts&#45;&gt;omit.ts</title>
<path fill="none" stroke="#757575" d="M36.3264,-1066.41C42.3611,-1093.17 60.9908,-1160.56 102,-1198 107.515,-1203.04 114.34,-1206.89 121.329,-1209.84"/>
<polygon fill="#757575" stroke="#757575" points="120.259,-1213.17 130.853,-1213.31 122.658,-1206.6 120.259,-1213.17"/>
</g>
<!-- once.ts -->
<g id="node41" class="node"><title>once.ts</title>
<path fill="none" stroke="#cfffac" d="M183.333,-701.5C183.333,-701.5 136.667,-701.5 136.667,-701.5 132.833,-701.5 129,-697.667 129,-693.833 129,-693.833 129,-686.167 129,-686.167 129,-682.333 132.833,-678.5 136.667,-678.5 136.667,-678.5 183.333,-678.5 183.333,-678.5 187.167,-678.5 191,-682.333 191,-686.167 191,-686.167 191,-693.833 191,-693.833 191,-697.667 187.167,-701.5 183.333,-701.5"/>
<text text-anchor="middle" x="160" y="-686.3" font-family="Arial" font-size="14.00" fill="#cfffac">once.ts</text>
</g>
<!-- index.ts&#45;&gt;once.ts -->
<g id="edge71" class="edge"><title>index.ts&#45;&gt;once.ts</title>
<path fill="none" stroke="#757575" d="M34.9042,-1043.62C39.3103,-990.685 60.0435,-768.914 102,-716 106.646,-710.141 112.907,-705.553 119.582,-701.977"/>
<polygon fill="#757575" stroke="#757575" points="121.218,-705.077 128.826,-697.703 118.28,-698.723 121.218,-705.077"/>
</g>
<!-- pathOr.ts -->
<g id="node42" class="node"><title>pathOr.ts</title>
<path fill="none" stroke="#c6c5fe" d="M335.333,-1697.5C335.333,-1697.5 276.667,-1697.5 276.667,-1697.5 272.833,-1697.5 269,-1693.67 269,-1689.83 269,-1689.83 269,-1682.17 269,-1682.17 269,-1678.33 272.833,-1674.5 276.667,-1674.5 276.667,-1674.5 335.333,-1674.5 335.333,-1674.5 339.167,-1674.5 343,-1678.33 343,-1682.17 343,-1682.17 343,-1689.83 343,-1689.83 343,-1693.67 339.167,-1697.5 335.333,-1697.5"/>
<text text-anchor="middle" x="306" y="-1682.3" font-family="Arial" font-size="14.00" fill="#c6c5fe">pathOr.ts</text>
</g>
<!-- index.ts&#45;&gt;pathOr.ts -->
<g id="edge72" class="edge"><title>index.ts&#45;&gt;pathOr.ts</title>
<path fill="none" stroke="#757575" d="M34.3444,-1066.37C36.922,-1147.74 54.4228,-1639.66 102,-1683 144.876,-1722.06 216.507,-1712.14 262.211,-1700.08"/>
<polygon fill="#757575" stroke="#757575" points="263.416,-1703.37 272.112,-1697.32 261.54,-1696.63 263.416,-1703.37"/>
</g>
<!-- pick.ts -->
<g id="node43" class="node"><title>pick.ts</title>
<path fill="none" stroke="#c6c5fe" d="M180.333,-1107.5C180.333,-1107.5 139.667,-1107.5 139.667,-1107.5 135.833,-1107.5 132,-1103.67 132,-1099.83 132,-1099.83 132,-1092.17 132,-1092.17 132,-1088.33 135.833,-1084.5 139.667,-1084.5 139.667,-1084.5 180.333,-1084.5 180.333,-1084.5 184.167,-1084.5 188,-1088.33 188,-1092.17 188,-1092.17 188,-1099.83 188,-1099.83 188,-1103.67 184.167,-1107.5 180.333,-1107.5"/>
<text text-anchor="middle" x="160" y="-1092.3" font-family="Arial" font-size="14.00" fill="#c6c5fe">pick.ts</text>
</g>
<!-- index.ts&#45;&gt;pick.ts -->
<g id="edge73" class="edge"><title>index.ts&#45;&gt;pick.ts</title>
<path fill="none" stroke="#757575" d="M65.5428,-1065.35C82.7515,-1070.99 104.149,-1078.01 122.126,-1083.91"/>
<polygon fill="#757575" stroke="#757575" points="121.12,-1087.26 131.713,-1087.05 123.302,-1080.61 121.12,-1087.26"/>
</g>
<!-- prop.ts -->
<g id="node44" class="node"><title>prop.ts</title>
<path fill="none" stroke="#cfffac" d="M181.833,-580.5C181.833,-580.5 138.167,-580.5 138.167,-580.5 134.333,-580.5 130.5,-576.667 130.5,-572.833 130.5,-572.833 130.5,-565.167 130.5,-565.167 130.5,-561.333 134.333,-557.5 138.167,-557.5 138.167,-557.5 181.833,-557.5 181.833,-557.5 185.667,-557.5 189.5,-561.333 189.5,-565.167 189.5,-565.167 189.5,-572.833 189.5,-572.833 189.5,-576.667 185.667,-580.5 181.833,-580.5"/>
<text text-anchor="middle" x="160" y="-565.3" font-family="Arial" font-size="14.00" fill="#cfffac">prop.ts</text>
</g>
<!-- index.ts&#45;&gt;prop.ts -->
<g id="edge75" class="edge"><title>index.ts&#45;&gt;prop.ts</title>
<path fill="none" stroke="#757575" d="M34.2452,-1043.61C35.8223,-980.023 46.3215,-669.037 102,-595 106.872,-588.521 113.739,-583.611 121.026,-579.905"/>
<polygon fill="#757575" stroke="#757575" points="122.599,-583.038 130.362,-575.828 119.797,-576.623 122.599,-583.038"/>
</g>
<!-- randomString.ts -->
<g id="node45" class="node"><title>randomString.ts</title>
<path fill="none" stroke="#c6c5fe" d="M209.833,-1066.5C209.833,-1066.5 110.167,-1066.5 110.167,-1066.5 106.333,-1066.5 102.5,-1062.67 102.5,-1058.83 102.5,-1058.83 102.5,-1051.17 102.5,-1051.17 102.5,-1047.33 106.333,-1043.5 110.167,-1043.5 110.167,-1043.5 209.833,-1043.5 209.833,-1043.5 213.667,-1043.5 217.5,-1047.33 217.5,-1051.17 217.5,-1051.17 217.5,-1058.83 217.5,-1058.83 217.5,-1062.67 213.667,-1066.5 209.833,-1066.5"/>
<text text-anchor="middle" x="160" y="-1051.3" font-family="Arial" font-size="14.00" fill="#c6c5fe">randomString.ts</text>
</g>
<!-- index.ts&#45;&gt;randomString.ts -->
<g id="edge77" class="edge"><title>index.ts&#45;&gt;randomString.ts</title>
<path fill="none" stroke="#757575" d="M65.5428,-1055C73.7222,-1055 82.8481,-1055 92.1032,-1055"/>
<polygon fill="#757575" stroke="#757575" points="92.158,-1058.5 102.158,-1055 92.1579,-1051.5 92.158,-1058.5"/>
</g>
<!-- range.ts -->
<g id="node46" class="node"><title>range.ts</title>
<path fill="none" stroke="#c6c5fe" d="M331.833,-1066.5C331.833,-1066.5 280.167,-1066.5 280.167,-1066.5 276.333,-1066.5 272.5,-1062.67 272.5,-1058.83 272.5,-1058.83 272.5,-1051.17 272.5,-1051.17 272.5,-1047.33 276.333,-1043.5 280.167,-1043.5 280.167,-1043.5 331.833,-1043.5 331.833,-1043.5 335.667,-1043.5 339.5,-1047.33 339.5,-1051.17 339.5,-1051.17 339.5,-1058.83 339.5,-1058.83 339.5,-1062.67 335.667,-1066.5 331.833,-1066.5"/>
<text text-anchor="middle" x="306" y="-1051.3" font-family="Arial" font-size="14.00" fill="#c6c5fe">range.ts</text>
</g>
<!-- index.ts&#45;&gt;range.ts -->
<g id="edge78" class="edge"><title>index.ts&#45;&gt;range.ts</title>
<path fill="none" stroke="#757575" d="M42.0902,-1043.6C53.4727,-1028.65 75.7814,-1003.16 102,-993 150.073,-974.374 168.895,-977.293 218,-993 244.719,-1001.55 270.235,-1021.64 286.642,-1036.65"/>
<polygon fill="#757575" stroke="#757575" points="284.258,-1039.21 293.931,-1043.53 289.066,-1034.12 284.258,-1039.21"/>
</g>
<!-- reduce.ts -->
<g id="node47" class="node"><title>reduce.ts</title>
<path fill="none" stroke="#c6c5fe" d="M189.333,-904.5C189.333,-904.5 130.667,-904.5 130.667,-904.5 126.833,-904.5 123,-900.667 123,-896.833 123,-896.833 123,-889.167 123,-889.167 123,-885.333 126.833,-881.5 130.667,-881.5 130.667,-881.5 189.333,-881.5 189.333,-881.5 193.167,-881.5 197,-885.333 197,-889.167 197,-889.167 197,-896.833 197,-896.833 197,-900.667 193.167,-904.5 189.333,-904.5"/>
<text text-anchor="middle" x="160" y="-889.3" font-family="Arial" font-size="14.00" fill="#c6c5fe">reduce.ts</text>
</g>
<!-- index.ts&#45;&gt;reduce.ts -->
<g id="edge79" class="edge"><title>index.ts&#45;&gt;reduce.ts</title>
<path fill="none" stroke="#757575" d="M36.3124,-1043.63C42.317,-1016.96 60.8863,-949.854 102,-913 105.431,-909.924 109.364,-907.315 113.524,-905.103"/>
<polygon fill="#757575" stroke="#757575" points="115.221,-908.177 122.891,-900.868 112.337,-901.799 115.221,-908.177"/>
</g>
<!-- reject.ts -->
<g id="node48" class="node"><title>reject.ts</title>
<path fill="none" stroke="#c6c5fe" d="M331.333,-1820.5C331.333,-1820.5 280.667,-1820.5 280.667,-1820.5 276.833,-1820.5 273,-1816.67 273,-1812.83 273,-1812.83 273,-1805.17 273,-1805.17 273,-1801.33 276.833,-1797.5 280.667,-1797.5 280.667,-1797.5 331.333,-1797.5 331.333,-1797.5 335.167,-1797.5 339,-1801.33 339,-1805.17 339,-1805.17 339,-1812.83 339,-1812.83 339,-1816.67 335.167,-1820.5 331.333,-1820.5"/>
<text text-anchor="middle" x="306" y="-1805.3" font-family="Arial" font-size="14.00" fill="#c6c5fe">reject.ts</text>
</g>
<!-- index.ts&#45;&gt;reject.ts -->
<g id="edge80" class="edge"><title>index.ts&#45;&gt;reject.ts</title>
<path fill="none" stroke="#757575" d="M34.0073,-1066.37C34.1835,-1162.73 37.711,-1840.68 102,-1900 139.889,-1934.96 174.068,-1926.98 218,-1900 248.148,-1881.48 227.816,-1852.79 254,-1829 256.925,-1826.34 260.245,-1824.02 263.754,-1821.99"/>
<polygon fill="#757575" stroke="#757575" points="265.335,-1825.12 272.75,-1817.55 262.234,-1818.84 265.335,-1825.12"/>
</g>
<!-- set.ts -->
<g id="node49" class="node"><title>set.ts</title>
<path fill="none" stroke="#c6c5fe" d="M179.333,-660.5C179.333,-660.5 140.667,-660.5 140.667,-660.5 136.833,-660.5 133,-656.667 133,-652.833 133,-652.833 133,-645.167 133,-645.167 133,-641.333 136.833,-637.5 140.667,-637.5 140.667,-637.5 179.333,-637.5 179.333,-637.5 183.167,-637.5 187,-641.333 187,-645.167 187,-645.167 187,-652.833 187,-652.833 187,-656.667 183.167,-660.5 179.333,-660.5"/>
<text text-anchor="middle" x="160" y="-645.3" font-family="Arial" font-size="14.00" fill="#c6c5fe">set.ts</text>
</g>
<!-- index.ts&#45;&gt;set.ts -->
<g id="edge81" class="edge"><title>index.ts&#45;&gt;set.ts</title>
<path fill="none" stroke="#757575" d="M34.496,-1043.53C37.2096,-985.84 52.0182,-727.878 102,-669 107.501,-662.52 115.231,-658.139 123.229,-655.176"/>
<polygon fill="#757575" stroke="#757575" points="124.429,-658.47 132.985,-652.221 122.399,-651.771 124.429,-658.47"/>
</g>
<!-- sort.ts -->
<g id="node50" class="node"><title>sort.ts</title>
<path fill="none" stroke="#c6c5fe" d="M179.833,-457.5C179.833,-457.5 140.167,-457.5 140.167,-457.5 136.333,-457.5 132.5,-453.667 132.5,-449.833 132.5,-449.833 132.5,-442.167 132.5,-442.167 132.5,-438.333 136.333,-434.5 140.167,-434.5 140.167,-434.5 179.833,-434.5 179.833,-434.5 183.667,-434.5 187.5,-438.333 187.5,-442.167 187.5,-442.167 187.5,-449.833 187.5,-449.833 187.5,-453.667 183.667,-457.5 179.833,-457.5"/>
<text text-anchor="middle" x="160" y="-442.3" font-family="Arial" font-size="14.00" fill="#c6c5fe">sort.ts</text>
</g>
<!-- index.ts&#45;&gt;sort.ts -->
<g id="edge82" class="edge"><title>index.ts&#45;&gt;sort.ts</title>
<path fill="none" stroke="#757575" d="M33.7255,-1043.38C32.1975,-968.99 27.303,-559.486 102,-466 107.259,-459.418 114.831,-454.997 122.746,-452.03"/>
<polygon fill="#757575" stroke="#757575" points="123.888,-455.341 132.438,-449.083 121.852,-448.643 123.888,-455.341"/>
</g>
<!-- sortBy.ts -->
<g id="node51" class="node"><title>sortBy.ts</title>
<path fill="none" stroke="#c6c5fe" d="M187.833,-377.5C187.833,-377.5 132.167,-377.5 132.167,-377.5 128.333,-377.5 124.5,-373.667 124.5,-369.833 124.5,-369.833 124.5,-362.167 124.5,-362.167 124.5,-358.333 128.333,-354.5 132.167,-354.5 132.167,-354.5 187.833,-354.5 187.833,-354.5 191.667,-354.5 195.5,-358.333 195.5,-362.167 195.5,-362.167 195.5,-369.833 195.5,-369.833 195.5,-373.667 191.667,-377.5 187.833,-377.5"/>
<text text-anchor="middle" x="160" y="-362.3" font-family="Arial" font-size="14.00" fill="#c6c5fe">sortBy.ts</text>
</g>
<!-- index.ts&#45;&gt;sortBy.ts -->
<g id="edge83" class="edge"><title>index.ts&#45;&gt;sortBy.ts</title>
<path fill="none" stroke="#757575" d="M34.4858,-1043.73C38.1442,-960.84 62.3203,-447.285 102,-392 105.535,-387.075 110.232,-383.062 115.418,-379.798"/>
<polygon fill="#757575" stroke="#757575" points="117.298,-382.763 124.489,-374.982 114.015,-376.58 117.298,-382.763"/>
</g>
<!-- splitAt.ts -->
<g id="node52" class="node"><title>splitAt.ts</title>
<path fill="none" stroke="#c6c5fe" d="M332.833,-781.5C332.833,-781.5 279.167,-781.5 279.167,-781.5 275.333,-781.5 271.5,-777.667 271.5,-773.833 271.5,-773.833 271.5,-766.167 271.5,-766.167 271.5,-762.333 275.333,-758.5 279.167,-758.5 279.167,-758.5 332.833,-758.5 332.833,-758.5 336.667,-758.5 340.5,-762.333 340.5,-766.167 340.5,-766.167 340.5,-773.833 340.5,-773.833 340.5,-777.667 336.667,-781.5 332.833,-781.5"/>
<text text-anchor="middle" x="306" y="-766.3" font-family="Arial" font-size="14.00" fill="#c6c5fe">splitAt.ts</text>
</g>
<!-- index.ts&#45;&gt;splitAt.ts -->
<g id="edge84" class="edge"><title>index.ts&#45;&gt;splitAt.ts</title>
<path fill="none" stroke="#757575" d="M34.6932,-1043.64C38.0513,-992.816 54.4553,-787.139 102,-749 151.333,-709.426 230.564,-735.249 274.015,-754.511"/>
<polygon fill="#757575" stroke="#757575" points="272.682,-757.75 283.231,-758.737 275.6,-751.387 272.682,-757.75"/>
</g>
<!-- splitWhen.ts -->
<g id="node53" class="node"><title>splitWhen.ts</title>
<path fill="none" stroke="#c6c5fe" d="M198.833,-781.5C198.833,-781.5 121.167,-781.5 121.167,-781.5 117.333,-781.5 113.5,-777.667 113.5,-773.833 113.5,-773.833 113.5,-766.167 113.5,-766.167 113.5,-762.333 117.333,-758.5 121.167,-758.5 121.167,-758.5 198.833,-758.5 198.833,-758.5 202.667,-758.5 206.5,-762.333 206.5,-766.167 206.5,-766.167 206.5,-773.833 206.5,-773.833 206.5,-777.667 202.667,-781.5 198.833,-781.5"/>
<text text-anchor="middle" x="160" y="-766.3" font-family="Arial" font-size="14.00" fill="#c6c5fe">splitWhen.ts</text>
</g>
<!-- index.ts&#45;&gt;splitWhen.ts -->
<g id="edge85" class="edge"><title>index.ts&#45;&gt;splitWhen.ts</title>
<path fill="none" stroke="#757575" d="M33.4028,-1043.71C31.9128,-1003.55 32.3295,-865.956 102,-790 103.019,-788.889 104.103,-787.84 105.242,-786.849"/>
<polygon fill="#757575" stroke="#757575" points="107.251,-789.715 113.443,-781.118 103.241,-783.977 107.251,-789.715"/>
</g>
<!-- take.ts -->
<g id="node54" class="node"><title>take.ts</title>
<path fill="none" stroke="#c6c5fe" d="M327.333,-1533.5C327.333,-1533.5 284.667,-1533.5 284.667,-1533.5 280.833,-1533.5 277,-1529.67 277,-1525.83 277,-1525.83 277,-1518.17 277,-1518.17 277,-1514.33 280.833,-1510.5 284.667,-1510.5 284.667,-1510.5 327.333,-1510.5 327.333,-1510.5 331.167,-1510.5 335,-1514.33 335,-1518.17 335,-1518.17 335,-1525.83 335,-1525.83 335,-1529.67 331.167,-1533.5 327.333,-1533.5"/>
<text text-anchor="middle" x="306" y="-1518.3" font-family="Arial" font-size="14.00" fill="#c6c5fe">take.ts</text>
</g>
<!-- index.ts&#45;&gt;take.ts -->
<g id="edge86" class="edge"><title>index.ts&#45;&gt;take.ts</title>
<path fill="none" stroke="#757575" d="M34.19,-1066.36C35.4407,-1127.14 44.3582,-1413.36 102,-1475 144.178,-1520.1 220.368,-1525.95 266.456,-1524.85"/>
<polygon fill="#757575" stroke="#757575" points="266.782,-1528.34 276.648,-1524.47 266.528,-1521.34 266.782,-1528.34"/>
</g>
<!-- takeWhile.ts -->
<g id="node55" class="node"><title>takeWhile.ts</title>
<path fill="none" stroke="#c6c5fe" d="M198.833,-1189.5C198.833,-1189.5 121.167,-1189.5 121.167,-1189.5 117.333,-1189.5 113.5,-1185.67 113.5,-1181.83 113.5,-1181.83 113.5,-1174.17 113.5,-1174.17 113.5,-1170.33 117.333,-1166.5 121.167,-1166.5 121.167,-1166.5 198.833,-1166.5 198.833,-1166.5 202.667,-1166.5 206.5,-1170.33 206.5,-1174.17 206.5,-1174.17 206.5,-1181.83 206.5,-1181.83 206.5,-1185.67 202.667,-1189.5 198.833,-1189.5"/>
<text text-anchor="middle" x="160" y="-1174.3" font-family="Arial" font-size="14.00" fill="#c6c5fe">takeWhile.ts</text>
</g>
<!-- index.ts&#45;&gt;takeWhile.ts -->
<g id="edge87" class="edge"><title>index.ts&#45;&gt;takeWhile.ts</title>
<path fill="none" stroke="#757575" d="M38.7527,-1066.52C47.9403,-1087.44 70.0844,-1131.82 102,-1157 104.29,-1158.81 106.75,-1160.47 109.318,-1161.99"/>
<polygon fill="#757575" stroke="#757575" points="107.876,-1165.19 118.366,-1166.68 111.095,-1158.97 107.876,-1165.19"/>
</g>
<!-- times.ts -->
<g id="node56" class="node"><title>times.ts</title>
<path fill="none" stroke="#c6c5fe" d="M184.833,-145.5C184.833,-145.5 135.167,-145.5 135.167,-145.5 131.333,-145.5 127.5,-141.667 127.5,-137.833 127.5,-137.833 127.5,-130.167 127.5,-130.167 127.5,-126.333 131.333,-122.5 135.167,-122.5 135.167,-122.5 184.833,-122.5 184.833,-122.5 188.667,-122.5 192.5,-126.333 192.5,-130.167 192.5,-130.167 192.5,-137.833 192.5,-137.833 192.5,-141.667 188.667,-145.5 184.833,-145.5"/>
<text text-anchor="middle" x="160" y="-130.3" font-family="Arial" font-size="14.00" fill="#c6c5fe">times.ts</text>
</g>
<!-- index.ts&#45;&gt;times.ts -->
<g id="edge88" class="edge"><title>index.ts&#45;&gt;times.ts</title>
<path fill="none" stroke="#757575" d="M34.1742,-1043.48C35.764,-944.257 48.9346,-236.032 102,-160 106.057,-154.187 111.742,-149.649 117.964,-146.113"/>
<polygon fill="#757575" stroke="#757575" points="119.834,-149.098 127.337,-141.618 116.807,-142.787 119.834,-149.098"/>
</g>
<!-- toPairs.ts -->
<g id="node57" class="node"><title>toPairs.ts</title>
<path fill="none" stroke="#cfffac" d="M189.833,-63.5C189.833,-63.5 130.167,-63.5 130.167,-63.5 126.333,-63.5 122.5,-59.6667 122.5,-55.8333 122.5,-55.8333 122.5,-48.1667 122.5,-48.1667 122.5,-44.3333 126.333,-40.5 130.167,-40.5 130.167,-40.5 189.833,-40.5 189.833,-40.5 193.667,-40.5 197.5,-44.3333 197.5,-48.1667 197.5,-48.1667 197.5,-55.8333 197.5,-55.8333 197.5,-59.6667 193.667,-63.5 189.833,-63.5"/>
<text text-anchor="middle" x="160" y="-48.3" font-family="Arial" font-size="14.00" fill="#cfffac">toPairs.ts</text>
</g>
<!-- index.ts&#45;&gt;toPairs.ts -->
<g id="edge89" class="edge"><title>index.ts&#45;&gt;toPairs.ts</title>
<path fill="none" stroke="#757575" d="M34.0401,-1043.65C34.5029,-939.577 40.0443,-153.296 102,-72 105.019,-68.038 108.881,-64.8577 113.168,-62.3054"/>
<polygon fill="#757575" stroke="#757575" points="114.904,-65.3553 122.431,-57.8993 111.897,-59.0339 114.904,-65.3553"/>
</g>
<!-- uniq.ts -->
<g id="node58" class="node"><title>uniq.ts</title>
<path fill="none" stroke="#c6c5fe" d="M327.333,-1369.5C327.333,-1369.5 284.667,-1369.5 284.667,-1369.5 280.833,-1369.5 277,-1365.67 277,-1361.83 277,-1361.83 277,-1354.17 277,-1354.17 277,-1350.33 280.833,-1346.5 284.667,-1346.5 284.667,-1346.5 327.333,-1346.5 327.333,-1346.5 331.167,-1346.5 335,-1350.33 335,-1354.17 335,-1354.17 335,-1361.83 335,-1361.83 335,-1365.67 331.167,-1369.5 327.333,-1369.5"/>
<text text-anchor="middle" x="306" y="-1354.3" font-family="Arial" font-size="14.00" fill="#c6c5fe">uniq.ts</text>
</g>
<!-- index.ts&#45;&gt;uniq.ts -->
<g id="edge91" class="edge"><title>index.ts&#45;&gt;uniq.ts</title>
<path fill="none" stroke="#757575" d="M35.0759,-1066.56C39.8006,-1114.68 60.3531,-1298.27 102,-1335 147.165,-1374.83 221.707,-1371.94 266.797,-1365.48"/>
<polygon fill="#757575" stroke="#757575" points="267.429,-1368.93 276.769,-1363.93 266.349,-1362.01 267.429,-1368.93"/>
</g>
<!-- indexBy.ts&#45;&gt;_types.ts -->
<g id="edge92" class="edge"><title>indexBy.ts&#45;&gt;_types.ts</title>
<path fill="none" stroke="#757575" d="M345.739,-1574.34C350.204,-1576.72 354.429,-1579.58 358,-1583 418.979,-1641.42 445.303,-1743.6 454.215,-1787.72"/>
<polygon fill="#757575" stroke="#757575" points="450.793,-1788.46 456.116,-1797.62 457.668,-1787.14 450.793,-1788.46"/>
</g>
<!-- indexBy.ts&#45;&gt;purry.ts -->
<g id="edge93" class="edge"><title>indexBy.ts&#45;&gt;purry.ts</title>
<path fill="none" stroke="#757575" d="M346.177,-1551.65C350.627,-1549.05 354.729,-1545.88 358,-1542 413.814,-1475.79 447.147,-1198.27 455.76,-1117.9"/>
<polygon fill="#757575" stroke="#757575" points="459.287,-1117.83 456.852,-1107.52 452.325,-1117.1 459.287,-1117.83"/>
</g>
<!-- intersection.ts&#45;&gt;_reduceLazy.ts -->
<g id="edge94" class="edge"><title>intersection.ts&#45;&gt;_reduceLazy.ts</title>
<path fill="none" stroke="#757575" d="M345.36,-1287.33C349.939,-1289.72 354.296,-1292.58 358,-1296 414.363,-1348.02 442.682,-1438.68 453.129,-1479.72"/>
<polygon fill="#757575" stroke="#757575" points="449.738,-1480.59 455.508,-1489.48 456.538,-1478.93 449.738,-1480.59"/>
</g>
<!-- intersection.ts&#45;&gt;purry.ts -->
<g id="edge95" class="edge"><title>intersection.ts&#45;&gt;purry.ts</title>
<path fill="none" stroke="#757575" d="M331.118,-1264.73C340.173,-1259.79 350.162,-1253.41 358,-1246 399.458,-1206.81 432.575,-1147.39 448.211,-1116.41"/>
<polygon fill="#757575" stroke="#757575" points="451.364,-1117.92 452.662,-1107.41 445.09,-1114.82 451.364,-1117.92"/>
</g>
<!-- map.ts&#45;&gt;_reduceLazy.ts -->
<g id="edge96" class="edge"><title>map.ts&#45;&gt;_reduceLazy.ts</title>
<path fill="none" stroke="#757575" d="M335.676,-1843.21C343.819,-1840.06 352.073,-1835.52 358,-1829 440.992,-1737.75 455.15,-1579.36 457.531,-1522.28"/>
<polygon fill="#757575" stroke="#757575" points="461.03,-1522.37 457.868,-1512.26 454.034,-1522.14 461.03,-1522.37"/>
</g>
<!-- map.ts&#45;&gt;_toLazyIndexed.ts -->
<g id="edge97" class="edge"><title>map.ts&#45;&gt;_toLazyIndexed.ts</title>
<path fill="none" stroke="#757575" d="M335.757,-1853.81C349.491,-1855.63 366.627,-1857.9 383.682,-1860.16"/>
<polygon fill="#757575" stroke="#757575" points="383.316,-1863.64 393.689,-1861.48 384.235,-1856.7 383.316,-1863.64"/>
</g>
<!-- map.ts&#45;&gt;_types.ts -->
<g id="edge98" class="edge"><title>map.ts&#45;&gt;_types.ts</title>
<path fill="none" stroke="#757575" d="M335.757,-1842.19C357.417,-1836.31 387.538,-1828.13 412.461,-1821.36"/>
<polygon fill="#757575" stroke="#757575" points="413.697,-1824.66 422.43,-1818.66 411.862,-1817.9 413.697,-1824.66"/>
</g>
<!-- map.ts&#45;&gt;purry.ts -->
<g id="edge99" class="edge"><title>map.ts&#45;&gt;purry.ts</title>
<path fill="none" stroke="#757575" d="M335.684,-1844.18C344.13,-1841.06 352.557,-1836.29 358,-1829 404.655,-1766.53 383.586,-1557.27 394,-1480 412.704,-1341.22 443.053,-1175.55 453.947,-1117.42"/>
<polygon fill="#757575" stroke="#757575" points="457.448,-1117.74 455.857,-1107.27 450.568,-1116.45 457.448,-1117.74"/>
</g>
<!-- merge.ts&#45;&gt;purry.ts -->
<g id="edge100" class="edge"><title>merge.ts&#45;&gt;purry.ts</title>
<path fill="none" stroke="#757575" d="M195.743,-85.4329C240.048,-78.0373 315.943,-73.3272 358,-116 427.768,-186.79 453.286,-937.108 457.389,-1074.47"/>
<polygon fill="#757575" stroke="#757575" points="453.893,-1074.68 457.685,-1084.57 460.89,-1074.47 453.893,-1074.68"/>
</g>
<!-- objOf.ts&#45;&gt;purry.ts -->
<g id="edge101" class="edge"><title>objOf.ts&#45;&gt;purry.ts</title>
<path fill="none" stroke="#757575" d="M192.828,-11.6149C237.485,-14.3532 317.771,-26.5 358,-77 422.436,-157.887 452.356,-933.728 457.267,-1074.24"/>
<polygon fill="#757575" stroke="#757575" points="453.78,-1074.68 457.623,-1084.55 460.776,-1074.44 453.78,-1074.68"/>
</g>
<!-- omit.ts&#45;&gt;purry.ts -->
<g id="edge102" class="edge"><title>omit.ts&#45;&gt;purry.ts</title>
<path fill="none" stroke="#757575" d="M189.053,-1211.47C227.858,-1200.64 299.723,-1179.07 358,-1153 383.983,-1141.38 412.011,-1125.04 431.764,-1112.84"/>
<polygon fill="#757575" stroke="#757575" points="433.862,-1115.65 440.485,-1107.38 430.151,-1109.72 433.862,-1115.65"/>
</g>
<!-- pathOr.ts&#45;&gt;_types.ts -->
<g id="edge103" class="edge"><title>pathOr.ts&#45;&gt;_types.ts</title>
<path fill="none" stroke="#757575" d="M341.748,-1697.3C347.389,-1699.79 353.011,-1702.68 358,-1706 393.146,-1729.38 425.557,-1766.9 443.469,-1789.63"/>
<polygon fill="#757575" stroke="#757575" points="440.712,-1791.78 449.599,-1797.55 446.248,-1787.5 440.712,-1791.78"/>
</g>
<!-- pathOr.ts&#45;&gt;purry.ts -->
<g id="edge104" class="edge"><title>pathOr.ts&#45;&gt;purry.ts</title>
<path fill="none" stroke="#757575" d="M343.035,-1676.61C348.733,-1673.71 354.041,-1669.93 358,-1665 366.858,-1653.98 437.73,-1220.71 454.467,-1117.77"/>
<polygon fill="#757575" stroke="#757575" points="457.966,-1118.06 456.115,-1107.63 451.057,-1116.94 457.966,-1118.06"/>
</g>
<!-- pick.ts&#45;&gt;purry.ts -->
<g id="edge105" class="edge"><title>pick.ts&#45;&gt;purry.ts</title>
<path fill="none" stroke="#757575" d="M188.144,-1096C240.396,-1096 355.233,-1096 416.909,-1096"/>
<polygon fill="#757575" stroke="#757575" points="417.057,-1099.5 427.057,-1096 417.057,-1092.5 417.057,-1099.5"/>
</g>
<!-- randomString.ts&#45;&gt;range.ts -->
<g id="edge107" class="edge"><title>randomString.ts&#45;&gt;range.ts</title>
<path fill="none" stroke="#757575" d="M217.913,-1055C232.572,-1055 248.104,-1055 261.93,-1055"/>
<polygon fill="#757575" stroke="#757575" points="262.127,-1058.5 272.127,-1055 262.127,-1051.5 262.127,-1058.5"/>
</g>
<!-- range.ts&#45;&gt;purry.ts -->
<g id="edge108" class="edge"><title>range.ts&#45;&gt;purry.ts</title>
<path fill="none" stroke="#757575" d="M339.765,-1063.9C362.635,-1070.11 393.307,-1078.43 417.679,-1085.05"/>
<polygon fill="#757575" stroke="#757575" points="416.79,-1088.44 427.358,-1087.68 418.624,-1081.68 416.79,-1088.44"/>
</g>
<!-- reduce.ts&#45;&gt;purry.ts -->
<g id="edge109" class="edge"><title>reduce.ts&#45;&gt;purry.ts</title>
<path fill="none" stroke="#757575" d="M197.01,-903.702C204.143,-906.355 211.446,-909.466 218,-913 307.563,-961.285 399.344,-1041.61 438.445,-1077.59"/>
<polygon fill="#757575" stroke="#757575" points="436.257,-1080.33 445.97,-1084.57 441.016,-1075.2 436.257,-1080.33"/>
</g>
<!-- reject.ts&#45;&gt;_reduceLazy.ts -->
<g id="edge110" class="edge"><title>reject.ts&#45;&gt;_reduceLazy.ts</title>
<path fill="none" stroke="#757575" d="M339.236,-1800.53C346.127,-1797.49 352.867,-1793.43 358,-1788 431.82,-1709.98 451.47,-1574.57 456.424,-1522.37"/>
<polygon fill="#757575" stroke="#757575" points="459.922,-1522.54 457.292,-1512.28 452.947,-1521.94 459.922,-1522.54"/>
</g>
<!-- reject.ts&#45;&gt;_toLazyIndexed.ts -->
<g id="edge111" class="edge"><title>reject.ts&#45;&gt;_toLazyIndexed.ts</title>
<path fill="none" stroke="#757575" d="M336.158,-1820.35C343.31,-1823.15 350.938,-1826.17 358,-1829 378.911,-1837.39 402.204,-1846.93 421.046,-1854.69"/>
<polygon fill="#757575" stroke="#757575" points="419.878,-1857.99 430.457,-1858.57 422.548,-1851.52 419.878,-1857.99"/>
</g>
<!-- reject.ts&#45;&gt;_types.ts -->
<g id="edge112" class="edge"><title>reject.ts&#45;&gt;_types.ts</title>
<path fill="none" stroke="#757575" d="M339.023,-1809C360.289,-1809 388.537,-1809 412.171,-1809"/>
<polygon fill="#757575" stroke="#757575" points="412.323,-1812.5 422.323,-1809 412.323,-1805.5 412.323,-1812.5"/>
</g>
<!-- reject.ts&#45;&gt;purry.ts -->
<g id="edge113" class="edge"><title>reject.ts&#45;&gt;purry.ts</title>
<path fill="none" stroke="#757575" d="M339.084,-1801.76C346.323,-1798.66 353.259,-1794.26 358,-1788 399.609,-1733.07 384.333,-1548.23 394,-1480 413.645,-1341.35 443.412,-1175.6 454.049,-1117.44"/>
<polygon fill="#757575" stroke="#757575" points="457.551,-1117.74 455.913,-1107.28 450.666,-1116.48 457.551,-1117.74"/>
</g>
<!-- set.ts&#45;&gt;purry.ts -->
<g id="edge114" class="edge"><title>set.ts&#45;&gt;purry.ts</title>
<path fill="none" stroke="#757575" d="M187.245,-654.76C229.896,-665.536 313.916,-692.91 358,-749 438.449,-851.359 454.182,-1015.98 457.255,-1074.5"/>
<polygon fill="#757575" stroke="#757575" points="453.77,-1074.91 457.716,-1084.74 460.763,-1074.59 453.77,-1074.91"/>
</g>
<!-- sort.ts&#45;&gt;purry.ts -->
<g id="edge115" class="edge"><title>sort.ts&#45;&gt;purry.ts</title>
<path fill="none" stroke="#757575" d="M187.777,-443.404C230.416,-440.889 313.463,-442.887 358,-490 440.088,-576.836 455.09,-976.114 457.553,-1074.19"/>
<polygon fill="#757575" stroke="#757575" points="454.058,-1074.47 457.79,-1084.39 461.057,-1074.31 454.058,-1074.47"/>
</g>
<!-- sortBy.ts&#45;&gt;purry.ts -->
<g id="edge116" class="edge"><title>sortBy.ts&#45;&gt;purry.ts</title>
<path fill="none" stroke="#757575" d="M195.731,-360.903C240.023,-356.554 315.904,-356.7 358,-400 454.367,-499.124 458.491,-967.669 458.161,-1074.35"/>
<polygon fill="#757575" stroke="#757575" points="454.661,-1074.52 458.112,-1084.53 461.661,-1074.55 454.661,-1074.52"/>
</g>
<!-- splitAt.ts&#45;&gt;purry.ts -->
<g id="edge117" class="edge"><title>splitAt.ts&#45;&gt;purry.ts</title>
<path fill="none" stroke="#757575" d="M315.316,-781.364C326.053,-796.354 344.909,-823.791 358,-849 399.758,-929.411 436.152,-1031.35 450.948,-1074.82"/>
<polygon fill="#757575" stroke="#757575" points="447.645,-1075.98 454.159,-1084.33 454.278,-1073.74 447.645,-1075.98"/>
</g>
<!-- splitWhen.ts&#45;&gt;purry.ts -->
<g id="edge118" class="edge"><title>splitWhen.ts&#45;&gt;purry.ts</title>
<path fill="none" stroke="#757575" d="M201.059,-781.369C206.956,-783.797 212.791,-786.66 218,-790 335.977,-865.652 420.427,-1019.81 448.152,-1075.42"/>
<polygon fill="#757575" stroke="#757575" points="445.117,-1077.18 452.664,-1084.61 451.401,-1074.1 445.117,-1077.18"/>
</g>
<!-- splitWhen.ts&#45;&gt;splitAt.ts -->
<g id="edge119" class="edge"><title>splitWhen.ts&#45;&gt;splitAt.ts</title>
<path fill="none" stroke="#757575" d="M206.562,-770C223.894,-770 243.6,-770 260.803,-770"/>
<polygon fill="#757575" stroke="#757575" points="261.147,-773.5 271.147,-770 261.147,-766.5 261.147,-773.5"/>
</g>
<!-- take.ts&#45;&gt;_reduceLazy.ts -->
<g id="edge120" class="edge"><title>take.ts&#45;&gt;_reduceLazy.ts</title>
<path fill="none" stroke="#757575" d="M335.048,-1518.1C351.392,-1515.83 372.724,-1512.86 393.022,-1510.04"/>
<polygon fill="#757575" stroke="#757575" points="393.769,-1513.47 403.192,-1508.62 392.805,-1506.53 393.769,-1513.47"/>
</g>
<!-- take.ts&#45;&gt;purry.ts -->
<g id="edge121" class="edge"><title>take.ts&#45;&gt;purry.ts</title>
<path fill="none" stroke="#757575" d="M335.098,-1515.71C343.509,-1512.56 352.063,-1507.89 358,-1501 409.145,-1441.63 445.276,-1193.26 455.232,-1117.82"/>
<polygon fill="#757575" stroke="#757575" points="458.74,-1117.99 456.557,-1107.62 451.798,-1117.09 458.74,-1117.99"/>
</g>
<!-- takeWhile.ts&#45;&gt;purry.ts -->
<g id="edge122" class="edge"><title>takeWhile.ts&#45;&gt;purry.ts</title>
<path fill="none" stroke="#757575" d="M201.985,-1166.68C258.879,-1150.98 361.155,-1122.74 417.689,-1107.13"/>
<polygon fill="#757575" stroke="#757575" points="418.65,-1110.5 427.358,-1104.46 416.787,-1103.75 418.65,-1110.5"/>
</g>
<!-- times.ts&#45;&gt;purry.ts -->
<g id="edge123" class="edge"><title>times.ts&#45;&gt;purry.ts</title>
<path fill="none" stroke="#757575" d="M192.619,-126.23C236.28,-117.586 314.548,-109.959 358,-153 425.836,-220.195 452.846,-940.004 457.316,-1074.44"/>
<polygon fill="#757575" stroke="#757575" points="453.826,-1074.79 457.65,-1084.67 460.822,-1074.57 453.826,-1074.79"/>
</g>
<!-- uniq.ts&#45;&gt;_reduceLazy.ts -->
<g id="edge124" class="edge"><title>uniq.ts&#45;&gt;_reduceLazy.ts</title>
<path fill="none" stroke="#757575" d="M335.068,-1366.05C342.919,-1369.07 351.165,-1373.01 358,-1378 396.99,-1406.48 429.508,-1453.7 446.11,-1480.59"/>
<polygon fill="#757575" stroke="#757575" points="443.327,-1482.75 451.489,-1489.51 449.32,-1479.14 443.327,-1482.75"/>
</g>
<!-- uniq.ts&#45;&gt;purry.ts -->
<g id="edge125" class="edge"><title>uniq.ts&#45;&gt;purry.ts</title>
<path fill="none" stroke="#757575" d="M335.029,-1350.95C343.24,-1347.78 351.695,-1343.29 358,-1337 421.708,-1273.46 446.755,-1163.44 454.782,-1117.32"/>
<polygon fill="#757575" stroke="#757575" points="458.265,-1117.71 456.433,-1107.27 451.358,-1116.57 458.265,-1117.71"/>
</g>
</g>
</svg>
